<svg xmlns="http://www.w3.org/2000/svg" xmlns:xlink="http://www.w3.org/1999/xlink" width="80" height="80" viewBox="0 0 80 80"><defs><path id="2f0xa" d="M1400 321l-40 40-40-40 40-40zm-19.17-17.04l7.1 16.28h9.18zm-1.59.15a77.55 77.55 0 0 1-5.31 11.06 76.35 76.35 0 0 1 11.99 4.24zm4.78 16.13c-4.05-1.71-11.35-4.45-17.19-4.66a8.67 8.67 0 0 1 1.86 4.66zm-15.33 1.51a8.7 8.7 0 0 1-1.78 4.57c5.72-.23 12.78-2.85 16.85-4.57zm3.7-6.94a72.74 72.74 0 0 0 5.04-10.23l-9.55 9.55c1.46.11 2.98.36 4.5.68zm3.97-11.28a72.43 72.43 0 0 0-10.23 5.04 34 34 0 0 1 .69 4.49zm-10.59 3.49a77.42 77.42 0 0 1 11.2-5.36l-15.45-6.64a76.7 76.7 0 0 1 4.25 12zm-5.01-13.98l16.05 6.9-16.05-16.05zm0 19.27c1.73.15 3.31.8 4.6 1.82-.2-5.77-2.88-12.98-4.6-17.06zm-17.08-12.85l15.57-6.42v-9.15zm-1.02 2.05c2.5.96 7.24 2.92 11.57 5.5a76.31 76.31 0 0 1 4.27-12.03zm16.59-4.44c-1.73 4.07-4.41 11.28-4.61 17.06a8.67 8.67 0 0 1 4.6-1.82zm-7.94 23.16a8.65 8.65 0 0 1 1.86-4.65c-5.87.2-13.16 2.94-17.2 4.65zm1.77 6.07a8.67 8.67 0 0 1-1.77-4.55h-15.07c4.06 1.72 11.1 4.32 16.84 4.55zm.79-17.74a72.61 72.61 0 0 0-10.22-5.03l9.54 9.52c.1-1.46.35-2.97.68-4.49zm-11.3-3.97a72.59 72.59 0 0 0 5.04 10.21c1.52-.32 3.03-.56 4.5-.67zm3.5 10.57a77.97 77.97 0 0 1-5.46-11.45l-6.56 15.72a75.65 75.65 0 0 1 12.02-4.27zm-23.18 5.07h9.18l6.58-15.74zm15.52 17.04l-6.3-15.52h-9.22zm2.1 1.16c.94-2.46 2.92-7.3 5.56-11.7a75.38 75.38 0 0 1-12.05-4.29zm7.1-11.35a72.67 72.67 0 0 0-5.03 10.21l9.54-9.53a34.12 34.12 0 0 1-4.5-.68zm-3.97 11.29c2.7-1.1 6.64-2.85 10.22-5.04a34.16 34.16 0 0 1-.68-4.5zm10.58-3.5a78.11 78.11 0 0 1-11.57 5.51l15.85 6.53a75.57 75.57 0 0 1-4.28-12.04zm5.04 13.98l-15.76-6.48 15.76 15.74zm0-19.16a8.7 8.7 0 0 1-4.62-1.82c.23 5.8 2.9 12.93 4.62 16.96zm-6.48-8.69a7.23 7.23 0 0 0 14.4.67v-1.34a7.23 7.23 0 0 0-14.4.67zm14.04 7.83a34.05 34.05 0 0 1-.69 4.49 72.66 72.66 0 0 0 10.22 5.03zm-1.46-.96a8.68 8.68 0 0 1-4.6 1.82v15.13c1.7-4.04 4.37-11.18 4.6-16.95zm11.4 14.23l-16 6.75v9.26zm.39-1.8a78.1 78.1 0 0 1-11.37-5.43 76.36 76.36 0 0 1-4.27 12.02zm.26-3a72.43 72.43 0 0 0-5.03-10.22c-1.52.33-3.03.57-4.5.68zm-3.48-10.58a77.56 77.56 0 0 1 5.37 11.22l6.63-15.47a76.18 76.18 0 0 1-12 4.25zm23.18-4.97h-9.23l-6.92 16.17z"/></defs><g><g transform="translate(-1320 -281)"><use fill="#fff" xlink:href="#2f0xa"/></g></g></svg>