<svg xmlns="http://www.w3.org/2000/svg" xmlns:xlink="http://www.w3.org/1999/xlink" width="80" height="80" viewBox="0 0 80 80"><defs><path id="y1jpa" d="M1400 1513l-5.03 5.03-34.01-34.04.5-.5 31.2 31.21.04.05 1.62-1.63-1.69-1.7-.04-.04-.67.67-.5-.5 3.55-3.56zm-71.93.96l.5.5-3.56 3.56-5.01-5.03 5.01-5 34.04 34-.5.5-31.06-31.05-.05-.03-1.7 1.7 1.55 1.54.04.04zm36.86-31.25l25.9 25.9-.5.5-25.9-25.9zm25.12 21.33l-20.55-20.55.5-.5 20.54 20.55zm-34.52 39.85l-25.88-25.89.5-.5 25.89 25.88zm-25.05-21.4l20.56 20.56-.5.5-20.56-20.56zm59.85-5.39l.5.51-25.9 25.88-.5-.5zm-.4 4.96l.5.5-20.54 20.54-.5-.49zm-59.78-13.35l-.5-.5 25.88-25.89.51.49zm.24-5.1l-.5-.5 20.55-20.55.5.5zm31.07 40.8l3.56 3.56-5.02 5.03-5.03-5.03 34.03-34 .52.5-31.22 31.19 1.74 1.72 1.7-1.68-.78-.78zm-2.93-62.84l-3.56-3.54 5.03-5.03 5.01 5.03-34.03 34-.48-.49 31.12-31.13-1.55-1.54-.04-.05-1.63 1.63.63.62zm7.03 25.54l-.04.06c-.39.75-1.67 3.36-1.75 5.4-.04.83.16 1.52.56 1.9.27.28.64.4 1.1.4h.12c1.6-.07 4.64-.92 6.1-2.5 1.33-1.45 1.14-3.42-.48-5.05-.23-.23-.47-.47-.71-.68l-.13-.12c-1.33-1.3-2.6-2.51-2.7-3.87-.05-.3-.33-2.94.85-3.98.47-.41 1-.5 1.48-.28.82.4 1.29 1.55 1.26 2.4-.01.48-.1.92-.27 1.32l-.05.13.14-.04c.36-.1.66-.27.88-.54.29-.34.35-.88.18-1.38a1.36 1.36 0 0 0-.23-.45 1.1 1.1 0 0 1-.26-.87c.47.13.88.55 1.07 1.12.24.7.13 1.46-.29 1.98-.78.94-2.03.82-2.08.82l-.4-.06c-.03 0-.06-.02-.07-.05a.09.09 0 0 1 0-.1l.28-.3s.46-.54.5-1.6c.01-.7-.43-1.58-.92-1.82-.27-.13-.54-.06-.82.18-.81.72-.74 2.72-.65 3.45l.02.02c.08 1.13 1.26 2.26 2.52 3.47.27.25.55.54.83.82 1.85 1.85 2.05 4.22.5 5.89-1.6 1.72-4.78 2.62-6.52 2.7-.06.02-.1.02-.16.02-.62 0-1.14-.2-1.53-.6-.5-.5-.78-1.34-.74-2.35.04-.89.29-1.97.73-3.2l.1-.24-.2.18c-1 .88-2.06 1.41-2.98 1.89l-.06.02c-.3.15-.58.3-.83.45a.69.69 0 0 1-.04-.46.71.71 0 0 1 .33-.4l.31-.17c1.38-.68 3.07-1.56 4.31-3.47l.2-.3.05-.1a7.86 7.86 0 0 0 .53-5.45c-.02-.12-.08-.24-.12-.38l-.06.03-.07.01c.2 1.24.05 2.56-.12 3.32-.54 2.24-2.25 3.4-4.65 4.47a3.74 3.74 0 0 0-2.4 3.3c-.01.36.5 1.23.98 2.02l.03.05.26.42.1.2c.15.26.63 1.27.79 3.44.19 2.46.52 3.78 1.9 4.16.68.19 1.44.2 2.04.2.95.03 1.53.07 1.53.62-.02.4-.17 2.16-.82 2.75-.64.58-1.02.49-2.13.22h-.02a.71.71 0 0 0-.68.21c-.3.31-.49.86-.46 1.35l.01.05.04.02c.45.08.99.39 1.15.82.04.07.07.1.1.1.06.03.2.03.54 0l.48-.05.47-.02h.08c.75-.05 1.48-.07 1.67-.5.1-.22.27-.73.47-1.32.82-2.48 1.24-3.55 1.67-3.73h.04v-.04c.01-.03.04-.15-.04-.37a1.53 1.53 0 0 0-.73-.85c-.19-.08-.56-.06-.91-.05-.6.03-1.31.05-1.69-.4-.21-.23-.28-.6-.2-1.06l.2-1.09c.22-1.07.37-1.85.29-2.79.16 0 .3.07.43.18.13.12.21.3.2.48a12.6 12.6 0 0 1-.31 2.25l-.02.06-.18 1.02c-.06.27-.03.46.06.57.18.2.73.19 1.2.17.43-.02.85-.04 1.18.1.7.3 1.16 1.13 1.14 1.7 0 .32-.15.56-.4.68l-.02.01c-.28.26-.8 1.77-1.33 3.35-.22.64-.38 1.14-.49 1.37-.35.78-1.29.82-2.2.86h-.03c-.16.02-.34.03-.5.03l-.47.05-.47.03c-.31 0-.57-.08-.78-.47l-.03-.06c-.06-.18-.49-.44-.81-.44h-.04c-.14.01-.28-.1-.33-.22v-.01a2.5 2.5 0 0 1 .58-2.2c.36-.36.8-.5 1.26-.39h.02c1.08.26 1.2.27 1.58-.08.4-.35.58-1.64.6-2.17v-.05l-.05-.01a5.01 5.01 0 0 0-.83-.06h-.03c-.63-.01-1.43-.02-2.2-.23-1.88-.5-2.16-2.43-2.34-4.71l-.08-.8-.01-.05-.06-.01c-1.13-.06-2.15-.66-3.04-1.78l-.04-.06-.04.03c-.69.38-2.98 1.66-3.7 2.68-.57.85-1.04 2.02-.02 2.9.3.27.82.56 1.32.86 1.01.6 1.64 1 1.74 1.44a.6.6 0 0 1-.08.43c-.07.1-.15.25-.23.4-.35.61-.92 1.65-1.9 1.33-1.33-.43-1.98-.26-2.28-.04-.23.17-.38.47-.43.87v.07l.05.01a1.7 1.7 0 0 1 1.01.88l.02.01c.08.06.36.08 1 .08h.26c.31 0 .6.02.8.03.67.04.86.03 1.1-.28.14-.18.4-.58.72-1.04l.02-.04c1.4-2.06 1.82-2.61 2.1-2.72.09-.01.14-.1.16-.2.01-.1-.02-.23-.22-.35-.1-.07-.32-.14-.55-.2-.6-.17-1.36-.37-1.69-.96a1.4 1.4 0 0 1-.04-1.1c.38-1.18 2.39-1.6 3.61-1.74.02.23.04.43.07.6-.89.11-2.81.45-3.1 1.32-.08.26-.08.46.01.62.2.37.81.54 1.31.68.28.08.53.14.7.25.35.22.54.57.5.94a.84.84 0 0 1-.52.72l-.02.01c-.25.19-1.06 1.36-1.79 2.45l-.01.03c-.35.51-.62.92-.79 1.1-.43.57-.92.56-1.57.52h-.07c-.21-.02-.47-.04-.77-.03-1.22.01-1.59-.01-1.82-.46-.06-.13-.32-.55-.79-.55a.3.3 0 0 1-.31-.31v-.03c0-.76.23-1.34.69-1.68.6-.43 1.55-.46 2.83-.04.41.13.72-.24 1.17-1.05l.01-.03.2-.35.03-.04-.03-.03c-.16-.24-.91-.68-1.41-1a9.81 9.81 0 0 1-1.41-.92c-1.06-.9-1.08-2.24-.07-3.7.75-1.1 2.9-2.34 3.8-2.82l.08-.04-.04-.06c-.25-.37-.42-.72-.54-.97l.23-.04c.13-.02.27-.05.39-.1.51 1.02 1.59 2.68 3.26 2.88l.1.01-.02-.1a7.64 7.64 0 0 0-.43-1.47 6.39 6.39 0 0 0-.31-.54c-.06-.08-.1-.16-.15-.25a9 9 0 0 1-1-1.96l-.05-.12-.08.1c-.49.58-1.04.92-1.74 1.07-.9.17-1.98-.27-2.94-.65-.64-.25-1.2-.47-1.4-.4-.56.17-.97.03-1.16-.08l-.04-.02-.03.03c-.2.13-.6.46-.86.98-.27.57-.54.64-.91.58-.16-.02-.31-.05-.65.22a.3.3 0 0 1-.24.07.27.27 0 0 1-.2-.15c-.38-.6-.4-1.83-.4-1.97v-.17l.15-.08c.65-.42 1.42-1.01 1.51-1.24.17-.54.43-.9.81-1.12.36-.19.8-.22 1.3-.07.5.16 1.37.2 2.34.12l.15-.01-.1-.1c-.23-.22-.74-.45-.76-.47l-.34-.05a3.1 3.1 0 0 1-1.95-.94l-.03-.03-.3.12-.12-.07c-.12-.06-.53-.35-.75-1.55-.13-.62 0-1.41.12-2.1.08-.48.14-.97.12-1.18l-.02-.1-.09.06a.64.64 0 0 1-.56.06c-.5-.17-.7-.62-.81-.88l-.03-.05a1.3 1.3 0 0 0-.45-.16h-.05a.26.26 0 0 1-.17-.12c-.05-.05-.06-.13-.05-.2l.02-.05c.16-.66.69-1.74 1.57-1.53l.46.1h.02c.8.16 1.81.36 2.04 1.12.07.21.14.52.23.89.2.8.49 2.03.79 2.47.25.4.4.54.45.61l.02.01h.02c.62.15 1.89.42 2.91.57-.27.16-.5.34-.7.51a38.5 38.5 0 0 1-2.42-.5l-.04-.01c-.07-.03-.23-.08-.74-.84-.38-.53-.66-1.77-.88-2.68-.1-.35-.16-.66-.23-.86-.12-.4-.93-.56-1.58-.68a6.85 6.85 0 0 1-.5-.11h-.06c-.3 0-.53.44-.65.72l-.02.07.06.01c.27.11.45.26.51.44l.02.02c.12.28.21.47.44.56h.06l.01-.02c.32-.26.6-.21.86.1.27.33.18.93.04 1.75-.1.64-.21 1.37-.12 1.88.1.54.23.84.32 1l.05.04.17-.07a.3.3 0 0 1 .36.1c.02 0 .15.21.45.43.36.28.8.43 1.26.48.14.02.81.11 1.38.43.32.15.55.46.67.64l.02.04.05-.02c.63-.1 1.27-.25 1.8-.43l.03-.01.02-.02c.58-.94 1.8-1.5 3.1-2.12l.05-.02 1.27-.62c1.73-.88 3.62-2.72 3.9-4.47.11-.68-.02-1.34-.4-1.95l-.18-.27.04.31c.1.62 0 1.14-.25 1.55l-.02.02v.02c.02.27 0 .54-.06.8-.22.94-1.15 1.77-2.83 2.53-.54.24-1.03.45-1.47.66-2.68 1.17-3.7 1.61-4.07 3.23-.22.07-.43.12-.66.17.24-1.36.8-2.1 2.08-2.82l.03-.03v-.06c-.03-.13-.09-.28-.13-.4-.07-.17-.13-.39-.16-.58v-.03l-.04-.02a2.37 2.37 0 0 1-1.07-1.19l.57-.21c.1.2.45.84 1.06.94.46.08.96-.5 1.37-.96.22-.25.41-.48.61-.6.08-.06.3-.2.79.23.14.12.23.3.21.48 0 .16-.07.32-.17.43a5.17 5.17 0 0 0-.54-.54l-.04-.02-.04.04c-.11.1-.23.24-.37.39-.4.45-.94 1.09-1.61 1.17h-.08l.02.08.07.19.1.3.02.06.07-.03c.5-.25 1.08-.5 1.74-.79.43-.19.93-.4 1.45-.65 1.48-.67 2.32-1.37 2.5-2.1.36-1.6-1.14-2.61-1.47-2.8a.6.6 0 0 1 .5-.27.6.6 0 0 1 .38.15c.31.27.6.6.8.93l.15.24-.03-.28a3.34 3.34 0 0 0-.42-1.36c-.4-.73-.95-1.23-1.5-1.33l-.05-.02-.04.12-.52 1.46a.32.32 0 0 1-.3.21c-.39.04-1.19.12-2.02.33-1.36.39-1.64.64-1.71.74l-.01.02v.04l.1.15.06.08 3.12-.75a.68.68 0 0 1-.52.75l-1.07.26-.04.01-.01.04-.01.11v.1l.08-.02c.04-.01.08-.01.13-.04l.36-.1a.7.7 0 0 1 .52.05c.13.08.24.2.3.35-.11.02-.38.1-1 .3-.17.05-.33.06-.46.05a.6.6 0 0 1-.38-.18.72.72 0 0 1-.16-.43v-.08l-.93.23c-.38.13-1.17.51-1.47.96a.43.43 0 0 0-.03.39l.03.06.07-.04a.33.33 0 0 1 .42.14l.13.28c-.43.23-.62.28-.66.28l-.17.06-.13-.15c-.24-.26-.52-.84-.17-1.37.32-.48.93-.81 1.37-1.03l.07-.02-.04-.07c-.12-.22-.16-.4-.1-.6.15-.44.78-.78 2.15-1.17h.01c.78-.19 1.47-.28 1.9-.32h.04l.03-.04.49-1.37.08-.2c.04-.13.14-.2.26-.2h.09c.6 0 1.22.34 1.76.97l.15.07c.25.1.5.2.73.35a4.75 4.75 0 0 1 2.45 3.05c.54 1.84.3 4.21-.6 5.9zm-38.73 8.08l-2.09-2.09 2.2-2.2-1.89-1.87-.04-.05-4.01 4.01 3.96 3.98.05.05zm35.42 31l-2.2 2.2-2.24-2.23-1.84 1.81 3.98 3.97.06.05 4.02-4.02-1.75-1.73zm-4.35-66.25l2.13-2.12 2.1 2.1 1.85-1.85.05-.04-3.98-3.98-.04-.05-4.04 4.03zm37.07 37.08l4.03-4.03-3.97-3.96-.06-.05-1.9 1.9 2.24 2.23-2.11 2.12 1.73 1.74zm-30.13-14.67l-.15.37c-.76 1.83-2.6 3.28-3.96 3.98-.46.25-.9.45-1.35.66-1.82.85-2.94 1.43-3.08 2.6a.79.79 0 0 1-.61.66c-.03-.3-.03-.58.01-.85l.03-.1-.1.04c-1.81.48-4.05.6-5.1.3-.34-.12-.6-.1-.82 0-.23.14-.4.38-.51.76-.1.32-.66.85-1.6 1.46l-.03.02v.04c0 .2.04.68.13 1.07l.03.08.06-.04a1.16 1.16 0 0 1 .81-.07h.03l.03-.03.13-.23a3.06 3.06 0 0 1 1.35-1.38l.01-.02c.12-.04.26-.01.34.1.05.05.3.21.77.07.42-.13 1.02.12 1.82.43.82.33 1.85.75 2.57.6 1-.2 1.56-.89 2.11-2.03v.04l.14-.31a4.47 4.47 0 0 1 2.44-2.37c2.29-1.04 3.81-2.08 4.3-4.06.08-.37.14-.88.17-1.4z"/></defs><g><g transform="translate(-1320 -1473)"><use xlink:href="#y1jpa"/><use fill="#fff" fill-opacity="0" stroke="#000" stroke-miterlimit="50" xlink:href="#y1jpa"/></g></g></svg>