<svg xmlns="http://www.w3.org/2000/svg" xmlns:xlink="http://www.w3.org/1999/xlink" width="80" height="79" viewBox="0 0 80 79"><defs><path id="1vpfa" d="M1363.55 606.88l-1.6-1.57 1.6-1.59 36.45 35.99-1.6 1.58-34.84-34.41zm-7.2 70.5l-36.35-36.1 1.6-1.57 34.76 34.5 2.04-2.02-12.84-12.68-22.8-22.52L1359.2 601l1.6 1.58-34.84 34.41 1.95 1.93 19.03-18.8 1.6 1.58-16.27 16.08-2.76 2.72 17.63 17.4h1.75v-2.1h-2.62v-2.1h-.05v-24.3l.68-.3a32.5 32.5 0 0 1 10.28-2.6l-4.88-4.82-3.47-3.42-.03-.04 11.26-11.12 5.12 5.04 6.17 6.08-.1.11-6.23 6.13h.01l-2.05 2.04a32.5 32.5 0 0 1 10.27 2.6l.67.3v24.17h.04v2.24h-2.9v2.1h1.8l17.63-17.41-19-18.77 1.6-1.57 19.8 19.55.8.79 3.56 3.51L1360.8 680l-1.6-1.58 34.85-34.41-1.96-1.93-2.84 2.8-15.29 15.1v.16h-.16zm-7.86-23.82h23.17v-10.28h-23.17zm0-12.52h3.35v-9.09h-3.35zm5.61 0h11.95v-9.09h-11.95zm5.98-12.44c-2.79 0-5.57.38-8.26 1.12h16.52a30.79 30.79 0 0 0-8.26-1.12zm-.07-2.47c.01.02.02.02.03.02l.04.01h.03l.03-.03 7.9-7.8-5.28-5.22-2.76-2.72-7.97 7.87zm8.3 14.91h3.35v-9.09h-3.35zm-6.02 4.13a3.9 3.9 0 0 1 1.74 3.23 3.94 3.94 0 0 1-3.95 3.9 3.95 3.95 0 0 1-3.96-3.9 3.88 3.88 0 0 1 2.42-3.6 3.96 3.96 0 0 1 3.75.37m-2.29 25.44l10.6-10.47h-21.2l7.85 7.75zm-8.84-12.7h17.65v-2.1h-17.65zm10.48-8.86a1.63 1.63 0 0 0-.15-1.58 1.68 1.68 0 0 0-1.41-.73 1.72 1.72 0 0 0-1.56 1.01 1.63 1.63 0 0 0 .15 1.58 1.7 1.7 0 0 0 1.41.73 1.67 1.67 0 0 0 1.56-1.01"/></defs><g><g transform="translate(-1320 -601)"><use fill="#fff" xlink:href="#1vpfa"/></g></g></svg>