<svg xmlns="http://www.w3.org/2000/svg" xmlns:xlink="http://www.w3.org/1999/xlink" width="20" height="24" viewBox="0 0 20 24"><defs><path id="wnx9a" d="M173.3 6144.5h6.16v1.5h-4.61v1.5h4.61v1.5h-4.61v1.5h4.61v1.5h-4.61v1.5h4.61v3h-1.54v-2.25h-3.07v2.25h-1.54zm-10.76-3h9.23v15h-3.85v-2.25h-3.84v2.25h-1.54zm10.77 0h4.6v1.5h-4.6zm-9.23-4.5h6.15v3h-6.15zm2.3-3v1.5h-3.84v4.5H161v18h20v-15h-1.54v-3h-7.7v-4.5h-3.84v-1.5z"/><path id="wnx9b" d="M164.85 6139.25h3.85v-1.5h-3.85z"/><path id="wnx9c" d="M164.08 6144.5h6.15v-1.5h-6.15z"/><path id="wnx9d" d="M164.08 6147.5h6.15v-1.5h-6.15z"/><path id="wnx9e" d="M164.08 6150.5h6.15v-1.5h-6.15z"/><path id="wnx9f" d="M164.08 6153.5h6.15v-1.5h-6.15z"/></defs><g><g transform="translate(-161 -6134)"><g><use xlink:href="#wnx9a"/></g><g><use xlink:href="#wnx9b"/></g><g><use xlink:href="#wnx9c"/></g><g><use xlink:href="#wnx9d"/></g><g><use xlink:href="#wnx9e"/></g><g><use xlink:href="#wnx9f"/></g></g></g></svg>