<svg xmlns="http://www.w3.org/2000/svg" xmlns:xlink="http://www.w3.org/1999/xlink" width="21" height="27" viewBox="0 0 21 27"><defs><path id="jiaha" d="M178.9 6193.93a7.9 7.9 0 0 1-7.86 7.94 7.9 7.9 0 0 1-7.85-7.94 7.9 7.9 0 0 1 7.85-7.93 7.9 7.9 0 0 1 7.86 7.93z"/><path id="jiahb" d="M175.76 6193.93a4.74 4.74 0 0 1-4.72 4.76 4.74 4.74 0 0 1-4.71-4.76 4.74 4.74 0 0 1 4.71-4.76c2.6 0 4.72 2.13 4.72 4.76z"/><path id="jiahc" d="M165.44 6199.49l-3.03 7.57 3.44-.43 2.16 2.68 2.55-7.44"/><path id="jiahd" d="M176.66 6199.49l3.03 7.57-3.44-.43-2.16 2.68-2.55-7.44"/></defs><g><g transform="translate(-161 -6185)"><g><use fill="#fff" fill-opacity="0" stroke="#000" stroke-miterlimit="50" stroke-width="2" xlink:href="#jiaha"/></g><g><use fill="#fff" fill-opacity="0" stroke="#000" stroke-miterlimit="50" stroke-width="2" xlink:href="#jiahb"/></g><g><use fill="#fff" fill-opacity="0" stroke="#000" stroke-miterlimit="50" stroke-width="2" xlink:href="#jiahc"/></g><g><use fill="#fff" fill-opacity="0" stroke="#000" stroke-miterlimit="50" stroke-width="2" xlink:href="#jiahd"/></g></g></g></svg>