<svg xmlns="http://www.w3.org/2000/svg" xmlns:xlink="http://www.w3.org/1999/xlink" width="182" height="26" viewBox="0 0 182 26"><defs><path id="d95ba" d="M636.53 83.35c3.41 0 5.5-2 5.5-5.87 0-3.8-2.2-5.77-5.5-5.77h-2.03v11.64zm-6.99-15.82h7.15c6.35 0 10.4 3.66 10.4 9.96 0 6.3-4.05 10.05-10.4 10.05h-7.15z"/><path id="d95bb" d="M658.4 78.54a2 2 0 0 0-.53-1.53 2.04 2.04 0 0 0-1.5-.64c-1.38 0-2.08 1-2.34 2.17zm-1.92-5.72c4.27 0 6.72 2.97 6.72 6.99 0 .51-.04 1.02-.1 1.53h-9.18a3.27 3.27 0 0 0 3.41 2.6 7.4 7.4 0 0 0 4-1.48l1.82 3.38a10.15 10.15 0 0 1-6.19 2.12c-5.17 0-8-3.7-8-7.57-.05-4.29 2.83-7.57 7.52-7.57z"/><path id="d95bc" d="M663.94 73.14h5.12l2.24 7.68c.27.9.54 2.48.54 2.48h.05s.27-1.53.53-2.48l2.24-7.68h5.18l-4.96 14.45h-5.98z"/><path id="d95bd" d="M689.98 78.54a2 2 0 0 0-.53-1.53 2.04 2.04 0 0 0-1.5-.64c-1.38 0-2.08 1-2.35 2.17zm-1.92-5.72c4.26 0 6.72 2.97 6.72 6.99-.01.51-.05 1.02-.11 1.53h-9.17a3.27 3.27 0 0 0 3.41 2.6 7.4 7.4 0 0 0 4-1.48l1.81 3.38a10.15 10.15 0 0 1-6.18 2.12c-5.18 0-8-3.7-8-7.57-.06-4.29 2.82-7.57 7.52-7.57z"/><path id="d95be" d="M697.28 67.53h4.9v14.08c0 1.38.27 1.86 1.34 1.86.2 0 .4-.01.58-.06v4.24c-.49.07-.99.1-1.49.1-2.61 0-5.39-.63-5.39-5.45V67.53z"/><path id="d95bf" d="M713.87 83.88c.91 0 1.79-.38 2.41-1.04.63-.66.95-1.55.9-2.45 0-2.17-1.55-3.55-3.31-3.55s-3.31 1.38-3.31 3.55a3.32 3.32 0 0 0 3.3 3.49zm0-11.06c4.58 0 8.26 3.07 8.26 7.57s-3.68 7.52-8.26 7.52c-4.59 0-8.27-3.02-8.27-7.52.05-4.55 3.68-7.57 8.27-7.57z"/><path id="d95bg" d="M732.16 83.89c1.54 0 2.82-1.22 2.82-3.45 0-2.17-1.17-3.54-2.82-3.54-1.5 0-2.83 1.06-2.83 3.54 0 1.75.9 3.45 2.83 3.45zm-7.58-10.75h4.43v.74c0 .3-.02.6-.05.9h.05a5.49 5.49 0 0 1 4.43-2.01c3.94 0 6.56 3.07 6.56 7.57 0 4.55-2.94 7.52-6.78 7.52a5.57 5.57 0 0 1-3.68-1.38h-.05s.05.53.05 1.22v5.4h-4.9V73.14z"/><path id="d95bh" d="M742.45 73.14h4.7v1.27c0 .3-.02.6-.06.9h.06a5.2 5.2 0 0 1 4.32-2.49c1.73-.1 3.34.87 4.05 2.44h.05a5.6 5.6 0 0 1 4.64-2.44c2.67 0 4.7 1.43 4.7 5.4v9.37H760v-8.58c0-1.05-.21-1.8-1.12-1.8-2.13 0-2.77 2.12-2.77 4.24v6.09h-4.91V79c0-1.05-.21-1.8-1.12-1.8-2.24 0-2.77 2.28-2.77 4.24v6.09h-4.91v-14.4z"/><path id="d95bi" d="M776.75 78.54a2 2 0 0 0-.53-1.53 2.04 2.04 0 0 0-1.5-.64c-1.39 0-2.08 1-2.35 2.17zm-1.93-5.72c4.27 0 6.72 2.97 6.72 6.99 0 .51-.04 1.02-.1 1.53h-9.18a3.27 3.27 0 0 0 3.42 2.6 7.4 7.4 0 0 0 4-1.48l1.81 3.38a10.15 10.15 0 0 1-6.19 2.12c-5.17 0-8-3.7-8-7.57-.05-4.29 2.83-7.57 7.52-7.57z"/><path id="d95bj" d="M784.1 73.14h4.7v1.27c0 .3-.02.6-.06.9h.06a5.2 5.2 0 0 1 4.64-2.49c2.93 0 5.22 1.33 5.22 5.4v9.38h-4.9v-8.48c0-1.32-.54-1.9-1.6-1.9-2.19 0-3.15 1.8-3.15 3.86v6.52h-4.9V73.14z"/><path id="d95bk" d="M802.61 77.17h-1.87V73.4h2.03v-4.13h4.75v4.13h3.04v3.76h-3.04v4.44c0 1.65 1.65 1.86 2.61 1.86.22 0 .43-.02.64-.06v4.24c-.44.07-.89.1-1.33.1-2.3 0-6.83-.63-6.83-5.45z"/></defs><g><g transform="translate(-629 -67)"><g><g><use fill="#fff" xlink:href="#d95ba"/></g><g><use fill="#fff" xlink:href="#d95bb"/></g><g><use fill="#fff" xlink:href="#d95bc"/></g><g><use fill="#fff" xlink:href="#d95bd"/></g><g><use fill="#fff" xlink:href="#d95be"/></g><g><use fill="#fff" xlink:href="#d95bf"/></g><g><use fill="#fff" xlink:href="#d95bg"/></g><g><use fill="#fff" xlink:href="#d95bh"/></g><g><use fill="#fff" xlink:href="#d95bi"/></g><g><use fill="#fff" xlink:href="#d95bj"/></g><g><use fill="#fff" xlink:href="#d95bk"/></g></g></g></g></svg>