<svg xmlns="http://www.w3.org/2000/svg" xmlns:xlink="http://www.w3.org/1999/xlink" width="120" height="114" viewBox="0 0 120 114"><defs><path id="ddrja" d="M1221.54 7581.89h.25c.22 0 .33.07.47.29l.93 1.46h1.23l-1.13-1.79c-.25-.38-.39-.46-.48-.51.08-.06.22-.14.47-.48l1.1-1.74h-1.23l-.9 1.42c-.14.21-.24.29-.47.29h-.24v-1.7h-1.09v4.51h1.1z"/><path id="ddrjb" d="M1226.75 7583.64h1.1v-1.49l1.54-3.03h-1.24l-.86 1.67-.84-1.67h-1.25l1.55 3.03z"/><path id="ddrjc" d="M1232.73 7580.16v-1.04h-2.19v1.04h.55v2.44h-.54v1.04h2.18v-1.04h-.55v-2.44z"/><path id="ddrjd" d="M1236.07 7581.63l-.94-2.5h-1.22l1.85 4.51h.65l1.82-4.52H1237z"/><path id="ddrje" d="M1324.58 7580.11c.38 0 .72.13 1 .37l.7-.65a2.3 2.3 0 0 0-3.99 1.56 2.3 2.3 0 0 0 3.99 1.55l-.7-.66c-.28.25-.62.37-1 .37-.67 0-1.2-.5-1.2-1.27s.53-1.27 1.2-1.27"/><path id="ddrjf" d="M1329.92 7580.16v-1.04h-2.19v1.04h.55v2.44h-.55v1.04h2.19v-1.04h-.55v-2.44z"/><path id="ddrjg" d="M1333.58 7583.64v-3.48h1.15v-1.04h-3.4v1.04h1.16v3.48z"/><path id="ddrjh" d="M1337.3 7583.64h1.1v-1.49l1.54-3.03h-1.24l-.86 1.67-.84-1.67h-1.25l1.55 3.03z"/><path id="ddrji" d="M1314.67 7583.89l-34.55 34.7-34.54-34.7 34.54-34.7zm-16.56-14.79l6.13 14.13h7.93zm-1.37.13c-.88 2.26-2.5 6.09-4.59 9.6a65.77 65.77 0 0 1 10.36 3.7zm4.12 14c-3.5-1.5-9.8-3.86-14.84-4.04a7.52 7.52 0 0 1 1.6 4.03zm-13.23 1.31a7.54 7.54 0 0 1-1.54 3.95c4.94-.2 11.04-2.46 14.55-3.95zm3.18-6.02a63.23 63.23 0 0 0 4.36-8.88l-8.24 8.29c1.26.1 2.57.3 3.88.59zm3.43-9.8a62.35 62.35 0 0 0-8.82 4.38c.28 1.32.49 2.63.59 3.9zm-9.13 3.04a66.73 66.73 0 0 1 9.67-4.66l-13.35-5.76a66.75 66.75 0 0 1 3.68 10.42zm-4.34-12.13l13.87 5.99-13.87-13.93zm0 16.72c1.5.13 2.87.7 3.99 1.58-.18-5-2.5-11.27-3.99-14.8zm-14.75-11.15l13.44-5.58v-7.93zm-.88 1.78c2.17.83 6.26 2.53 10 4.77a66.41 66.41 0 0 1 3.68-10.44zm14.32-3.86c-1.48 3.53-3.8 9.79-3.97 14.8a7.45 7.45 0 0 1 3.97-1.57zm-6.84 20.11a7.55 7.55 0 0 1 1.6-4.05c-5.07.18-11.37 2.56-14.85 4.05zm1.53 5.26a7.54 7.54 0 0 1-1.53-3.95h-13.02c3.5 1.49 9.6 3.75 14.55 3.95zm.67-15.4c-3.09-1.9-6.5-3.42-8.82-4.36l8.24 8.27c.1-1.27.3-2.58.58-3.9zm-9.74-3.44a63.07 63.07 0 0 0 4.35 8.86c1.3-.28 2.62-.49 3.88-.59zm3.02 9.17a67.77 67.77 0 0 1-4.72-9.94l-5.67 13.65a65.22 65.22 0 0 1 10.39-3.7zm-20.03 4.41h7.93l5.68-13.67zm13.4 14.78l-5.43-13.47h-7.97zm1.82 1a68.38 68.38 0 0 1 4.8-10.16 64.94 64.94 0 0 1-10.4-3.71zm6.14-9.85a63.14 63.14 0 0 0-4.35 8.86l8.24-8.27a29.4 29.4 0 0 1-3.89-.59zm-3.43 9.8a62.28 62.28 0 0 0 8.81-4.38 29.84 29.84 0 0 1-.58-3.9zm9.13-3.04a67.32 67.32 0 0 1-10 4.78l13.7 5.67a65.76 65.76 0 0 1-3.7-10.45zm4.34 12.13l-13.6-5.62 13.6 13.65zm0-16.62a7.47 7.47 0 0 1-3.98-1.58c.2 5.03 2.5 11.21 3.98 14.71zm-5.58-7.55c0 3.45 2.8 6.26 6.24 6.26 3.24 0 5.91-2.5 6.2-5.68v-1.16a6.25 6.25 0 0 0-6.2-5.68 6.25 6.25 0 0 0-6.24 6.26zm12.12 6.8c-.1 1.27-.3 2.58-.59 3.9 3.1 1.9 6.5 3.42 8.82 4.37zm-1.26-.83a7.47 7.47 0 0 1-3.98 1.58v13.13c1.48-3.51 3.78-9.7 3.98-14.7zm9.85 12.35l-13.83 5.85v8.03zm.34-1.57a67.37 67.37 0 0 1-9.83-4.7 66.43 66.43 0 0 1-3.68 10.42zm.24-2.6a62.91 62.91 0 0 0-4.36-8.87c-1.31.29-2.62.5-3.89.6zm-3.03-9.18a67.45 67.45 0 0 1 4.64 9.73l5.72-13.42a65.52 65.52 0 0 1-10.35 3.7zm20.03-4.3h-7.98l-5.98 14z"/><path id="ddrjj" d="M1322.3 7588.36h17.57v-1.31h-17.58z"/><path id="ddrjk" d="M1220.43 7588.38h17.59v-1.31h-17.58z"/><path id="ddrjl" d="M1236.1 7561.01l-1.22-.55-1.4 3.1-1.47-.68 1.29-2.86-1.23-.55-1.29 2.86-1.43-.66 1.4-3.1-1.23-.55-1.98 4.4 6.58 3z"/><path id="ddrjm" d="M1239.19 7555.97a3.6 3.6 0 0 0-.88-5.1 3.57 3.57 0 0 0-5.06.97l-1.43 2.07 5.94 4.13zm-5.46-2.47l.62-.9c.72-1.03 1.95-1.39 3.15-.55 1.2.83 1.3 2.11.58 3.15l-.61.9z"/><path id="ddrjn" d="M1246.96 7546.93l-.95-.95-2.4 2.4-1.14-1.14 2.21-2.23-.95-.95-2.2 2.22-1.12-1.12 2.39-2.4-.95-.96-3.4 3.42 5.11 5.13z"/><path id="ddrjo" d="M1253.4 7542.01l-.79-1.1-2.64 1.91-3.43-4.8-1.15.84 4.21 5.89z"/><path id="ddrjp" d="M1258.22 7539.32l-.17-4.7 3.38 3.26.77-.35-.3-7.82-1.45.65.3 4.94-3.5-3.5-.77.35.27 4.95-3.48-3.5-1.44.65 5.62 5.42z"/><path id="ddrjq" d="M1272.75 7534.73l-.27-1.32-3.32.68-.32-1.6 3.07-.62-.27-1.32-3.07.62-.31-1.55 3.32-.68-.27-1.32-4.71.96 1.44 7.11z"/><path id="ddrjr" d="M1276.76 7528.45l.2 4.56-.86.04.06 1.34 3.15-.14-.06-1.35-.86.04-.21-4.55.87-.04-.07-1.35-3.15.15.06 1.34z"/><path id="ddrjs" d="M1286.01 7533.35l-.06-.01a2.6 2.6 0 0 1-2.01-1.21l-1.02.75a3.74 3.74 0 0 0 2.88 1.8h.06c1.59.18 2.88-.53 3.04-1.9.17-1.5-.85-2.16-2.29-2.5l-.57-.13c-.63-.16-1.17-.37-1.12-.85.08-.63.86-.72 1.34-.66h.08c.52.07 1.28.44 1.76.93l1.02-.75a4.2 4.2 0 0 0-2.63-1.51l-.08-.01c-1.49-.15-2.75.54-2.9 1.89-.15 1.26.84 1.93 2.2 2.25l.55.13c.73.18 1.3.42 1.22 1.05-.06.54-.64.81-1.47.73"/><path id="ddrjt" d="M1294.34 7536.46l.06.02c1.54.45 2.94-.02 3.33-1.34.43-1.44-.46-2.28-1.81-2.87l-.54-.23c-.6-.26-1.09-.56-.95-1.03.18-.6.97-.55 1.43-.41l.08.02c.5.15 1.18.65 1.57 1.22l1.14-.55a4.2 4.2 0 0 0-2.33-1.96l-.08-.02c-1.44-.42-2.8.04-3.19 1.34-.36 1.22.5 2.05 1.77 2.61l.53.22c.69.3 1.2.65 1.02 1.25-.16.53-.78.69-1.58.46l-.06-.02a2.61 2.61 0 0 1-1.77-1.55l-1.13.55c.32.91 1.13 1.87 2.51 2.29"/><path id="ddrju" d="M1307.83 7539.3l2.33 1.55-1.64 2.47 1.18.8 4-6.05-1.18-.79-1.62 2.44-2.33-1.55 1.62-2.44-1.19-.8-4 6.05 1.19.79z"/><path id="ddrjv" d="M1313.35 7547.22l1.3-.58 1.82 1.79-.56 1.3 1.13 1.12 2.96-7.24-.6-.59-7.17 3.09zm4.54-2.07l-.83 1.97-1.11-1.1z"/><path id="ddrjw" d="M1320.5 7555.56c.87 1.25 2.52 1.83 4.23.62l3.43-2.41-.82-1.17-3.4 2.4c-1.11.77-1.9.4-2.34-.21-.43-.62-.5-1.5.61-2.28l3.4-2.4-.81-1.16-3.43 2.41c-1.71 1.2-1.74 2.95-.87 4.2"/><path id="ddrjx" d="M1327.78 7561.9l.17.54c.23.72.3 1.33-.27 1.6-.5.22-1.02-.15-1.37-.9l-.03-.07a2.63 2.63 0 0 1 0-2.35l-1.16-.5a3.77 3.77 0 0 0-.06 3.4l.02.07c.67 1.46 1.94 2.21 3.19 1.64 1.36-.61 1.41-1.84.97-3.26l-.18-.55c-.2-.63-.3-1.2.15-1.4.57-.26 1.05.37 1.25.81l.03.07c.22.49.3 1.33.12 2l1.16.5c.33-.97.37-2.11-.05-3.05l-.04-.07c-.63-1.37-1.87-2.1-3.1-1.54-1.16.52-1.22 1.72-.8 3.05"/><path id="ddrjy" d="M1232.45 7609.11l1.22-.58-1.34-2.85 1.43-.68 1.45 3.09 1.22-.58-2.06-4.39-6.56 3.11 2.06 4.4 1.22-.58-1.45-3.1 1.47-.7z"/><path id="ddrjz" d="M1239.5 7612.37l-1.46-2.07-5.91 4.23 1.46 2.06a3.58 3.58 0 0 0 5.1.9c1.7-1.22 2-3.45.81-5.12m-1.65 3.96c-1.2.86-2.43.51-3.16-.52l-.63-.9 3.71-2.65.63.89c.74 1.04.65 2.33-.55 3.18"/><path id="ddrjA" d="M1243.91 7619.79l2.42 2.4.95-.97-3.45-3.4-5.08 5.2 3.44 3.4.95-.97-2.43-2.4 1.14-1.16 2.24 2.21.95-.97-2.24-2.2z"/><path id="ddrjB" d="M1249.82 7623.28l-4.2 5.95 3.84 2.73.78-1.1-2.67-1.9 3.42-4.85z"/><path id="ddrjC" d="M1260.08 7634.45l.25-4.97-.77-.35-3.5 3.52.27-4.96-1.44-.65-.28 7.86.77.35 3.4-3.29-.17 4.73.78.35 5.62-5.47-1.45-.65z"/><path id="ddrjD" d="M1266.53 7639.28l4.73.97.27-1.33-3.33-.68.33-1.6 3.07.63.27-1.33-3.08-.63.32-1.56 3.33.68.27-1.32-4.73-.97z"/><path id="ddrjE" d="M1275.92 7634.79l.87.04-.22 4.58-.87-.04-.07 1.35 3.17.15.07-1.35-.87-.04.22-4.58.87.04.07-1.35-3.17-.15z"/><path id="ddrjF" d="M1286.1 7636.1h-.58c-.66-.02-1.23-.1-1.28-.59-.07-.63.68-.9 1.16-.94l.08-.01c.52-.06 1.35.14 1.93.51l.84-.96a4.2 4.2 0 0 0-2.92-.9l-.08.01c-1.49.18-2.58 1.14-2.43 2.5.13 1.27 1.26 1.7 2.65 1.72h.58c.75.01 1.36.13 1.42.76.06.55-.45.94-1.28 1.04h-.06a2.62 2.62 0 0 1-2.24-.74l-.84.96a3.75 3.75 0 0 0 3.22 1.13h.06c1.6-.19 2.71-1.17 2.57-2.54-.16-1.5-1.32-1.94-2.8-1.96"/><path id="ddrjG" d="M1295.03 7634.26l-.57.1c-.65.1-1.23.12-1.37-.35-.17-.61.53-1 .98-1.13l.08-.03c.51-.14 1.36-.1 2 .17l.65-1.09a4.2 4.2 0 0 0-3.02-.38l-.08.03c-1.44.44-2.34 1.57-1.97 2.88.36 1.23 1.54 1.46 2.92 1.23l.56-.1c.75-.12 1.36-.11 1.54.5.15.53-.28 1-1.09 1.25l-.06.02c-1.03.3-1.9 0-2.33-.34l-.66 1.09c.77.59 1.97.95 3.37.55l.06-.02c1.54-.46 2.47-1.62 2.08-2.95-.42-1.45-1.62-1.67-3.09-1.43"/><path id="ddrjH" d="M1307.95 7624.93l1.59 2.48-2.37 1.52-1.58-2.48-1.2.78 3.92 6.13 1.2-.77-1.6-2.52 2.36-1.53 1.6 2.52 1.2-.78-3.92-6.13z"/><path id="ddrjI" d="M1313.73 7620.24l2.82 7.36 1.16-1.1-.54-1.32 1.86-1.77 1.29.61 1.15-1.1-7.13-3.26zm4 2.53l-1.13 1.08-.79-2z"/><path id="ddrjJ" d="M1325.12 7613.28l-3.4-2.5-.84 1.16 3.37 2.48c1.1.8 1 1.68.56 2.3-.45.6-1.25.96-2.35.15l-3.37-2.48-.85 1.16 3.4 2.5c1.69 1.24 3.35.7 4.26-.54.9-1.23.9-3-.78-4.23"/><path id="ddrjK" d="M1330.5 7604.93c-1.36-.66-2.33.1-3.13 1.36l-.3.5c-.37.55-.74 1-1.18.78-.57-.28-.39-1.06-.18-1.49l.03-.07c.23-.48.83-1.08 1.46-1.38l-.37-1.22a4.23 4.23 0 0 0-2.3 2l-.04.08c-.63 1.37-.4 2.8.83 3.4 1.15.55 2.1-.17 2.86-1.36l.3-.49c.4-.63.82-1.1 1.4-.82.49.24.55.89.2 1.65l-.03.06a2.62 2.62 0 0 1-1.81 1.51l.37 1.22a3.76 3.76 0 0 0 2.65-2.15l.03-.05c.69-1.46.45-2.93-.8-3.53"/></defs><g><g transform="translate(-1220 -7527)"><g><g><use fill="#fff" xlink:href="#ddrja"/></g><g><use fill="#fff" xlink:href="#ddrjb"/></g><g><use fill="#fff" xlink:href="#ddrjc"/></g><g><use fill="#fff" xlink:href="#ddrjd"/></g><g><use fill="#fff" xlink:href="#ddrje"/></g><g><use fill="#fff" xlink:href="#ddrjf"/></g><g><use fill="#fff" xlink:href="#ddrjg"/></g><g><use fill="#fff" xlink:href="#ddrjh"/></g><g><use fill="#fff" xlink:href="#ddrji"/></g><g><use fill="#fff" xlink:href="#ddrjj"/></g><g><use fill="#fff" xlink:href="#ddrjk"/></g><g><use fill="#fff" xlink:href="#ddrjl"/></g><g><use fill="#fff" xlink:href="#ddrjm"/></g><g><use fill="#fff" xlink:href="#ddrjn"/></g><g><use fill="#fff" xlink:href="#ddrjo"/></g><g><use fill="#fff" xlink:href="#ddrjp"/></g><g><use fill="#fff" xlink:href="#ddrjq"/></g><g><use fill="#fff" xlink:href="#ddrjr"/></g><g><use fill="#fff" xlink:href="#ddrjs"/></g><g><use fill="#fff" xlink:href="#ddrjt"/></g><g><use fill="#fff" xlink:href="#ddrju"/></g><g><use fill="#fff" xlink:href="#ddrjv"/></g><g><use fill="#fff" xlink:href="#ddrjw"/></g><g><use fill="#fff" xlink:href="#ddrjx"/></g><g><use fill="#fff" xlink:href="#ddrjy"/></g><g><use fill="#fff" xlink:href="#ddrjz"/></g><g><use fill="#fff" xlink:href="#ddrjA"/></g><g><use fill="#fff" xlink:href="#ddrjB"/></g><g><use fill="#fff" xlink:href="#ddrjC"/></g><g><use fill="#fff" xlink:href="#ddrjD"/></g><g><use fill="#fff" xlink:href="#ddrjE"/></g><g><use fill="#fff" xlink:href="#ddrjF"/></g><g><use fill="#fff" xlink:href="#ddrjG"/></g><g><use fill="#fff" xlink:href="#ddrjH"/></g><g><use fill="#fff" xlink:href="#ddrjI"/></g><g><use fill="#fff" xlink:href="#ddrjJ"/></g><g><use fill="#fff" xlink:href="#ddrjK"/></g></g></g></g></svg>