<svg xmlns="http://www.w3.org/2000/svg" xmlns:xlink="http://www.w3.org/1999/xlink" width="140" height="53" viewBox="0 0 140 53"><defs><path id="c82pd" d="M1280.93 7752.77l9.17 9.18.42-.42-9.59-9.6-.42.42.42.42z"/><path id="c82pe" d="M1279.04 7771.58l-9.57-9.63.43-.42 9.14 9.2.54-.53-3.38-3.39-6-6 9.6-9.61.41.42-9.17 9.18.52.52 5-5.02.43.42-4.29 4.3-.72.72 4.64 4.64h.46v-.56h-.7V7758.78l.17-.08a8.46 8.46 0 0 1 2.7-.7l-1.27-1.28-.92-.92 2.96-2.97 1.35 1.34 1.62 1.62-.03.03-1.64 1.64-.53.54c.93.08 1.84.31 2.7.7l.18.08v7.05h-.75v.55h.47l4.64-4.64-5-5 .42-.43 5.2 5.22.22.2.94.95-9.6 9.6-.42-.42 9.17-9.18-.51-.52-.75.75-4.02 4.03v.04h-.05zm.96-13.67h.03l2.08-2.09-1.39-1.4-.72-.72-2.1 2.1zm.03.65c-.74 0-1.47.1-2.18.3h4.35c-.7-.2-1.44-.3-2.17-.3zm-1.58 3.32h3.14v-2.42h-3.14zm-1.48.01h.88v-2.43h-.88zm0 3.34h6.1v-2.75h-6.1zm.7 1.15h4.65v-.56h-4.65zm2.33 3.4l2.8-2.8h-5.59l2.07 2.07z"/><path id="c82pf" d="M1280.6 7762.98a1.04 1.04 0 1 0-1.16 1.73 1.03 1.03 0 0 0 .98.1 1.04 1.04 0 0 0 .18-1.83m-.17 1.03a.44.44 0 0 1-.59.24.44.44 0 0 1-.27-.4.44.44 0 0 1 .2-.37.45.45 0 0 1 .62.12.43.43 0 0 1 .04.41"/><path id="c82pa" d="M1346.8 7780.02h3.2v3.2h-3.2z"/><path id="c82ph" d="M1348.4 7780.02l-1.6 1.6 1.6 1.6 1.6-1.6z"/><path id="c82pi" d="M1210 7781.62l1.6 1.6 1.6-1.6-1.6-1.6z"/><path id="c82pj" d="M1271.12 7794.16l.17-.18.05-.1.12-.14.59-.67a37.1 37.1 0 0 0 1.39-1.81l.62-.86.45-.63.21-.27.03-.1.05-.2a.57.57 0 0 0 .01-.18c0-.06-.04-.08-.09-.07-.08-.02-.14 0-.19.05l-.13.14-.18.2a30.13 30.13 0 0 0-.94 1.2c-.26.3-.53.63-.78 1l-.53.64a804.17 804.17 0 0 1-1.3 1.52 5.34 5.34 0 0 0-.53.76 1.43 1.43 0 0 1-1.87 2.45.2.2 0 0 1-.07.13 3.83 3.83 0 0 1-.98 1.29l-.1.1-.07.1a.25.25 0 0 1-.1.1c.02-.33.07-.67.14-1.02s.12-.68.16-.98c.05-.4.1-.8.18-1.24.08-.42.15-.87.22-1.33a.49.49 0 0 0 .07-.24.7.7 0 0 1 .06-.25v-.04-.04c0-.07.02-.13.04-.2a7.83 7.83 0 0 1 .08-.35 6.92 6.92 0 0 0 .12-.66 4.45 4.45 0 0 1 .33-1.17c.03-.08.03-.17-.02-.27a.9.9 0 0 0-.23-.2c-.08-.06-.18-.1-.28-.15-.22.02-.4.1-.55.22-.12.6-.23 1.19-.31 1.79a920.97 920.97 0 0 1-.46 3.17 36.53 36.53 0 0 0-.35 3.15c0 .19.06.34.19.46.12.12.3.17.52.15.07.02.14.02.2 0a.55.55 0 0 0 .17-.1l.14-.14.12-.14a22.31 22.31 0 0 0 1-1.4l.01-.04.42-.53.42-.53c.05-.07.1-.13.17-.15.06-.03.11-.09.15-.18a2.31 2.31 0 0 0 .24-.34v-.07a.26.26 0 0 0 .1-.13c0-.05.04-.1.1-.13.12-.2.26-.4.42-.6a58.62 58.62 0 0 0 .6-.79"/><path id="c82pk" d="M1273.03 7792.87c-.04-.05-.1-.06-.16-.04a.68.68 0 0 0-.21.13 1.3 1.3 0 0 0-.18.2c-.05.06-.07.11-.06.14l-.04.13a.64.64 0 0 0-.04.15c0 .05 0 .1.02.13.02.04.06.07.1.09.04.02.06.02.08.01l.04-.01a.27.27 0 0 1 .13-.09c.05-.02.09-.05.1-.1h.06c0-.02.01-.04.04-.07.03-.02.04-.05.03-.08.04.02.05.01.05-.02 0-.04 0-.04.03-.03l.01-.03v-.03c.07-.04.12-.1.14-.2.02-.1 0-.18-.06-.25l-.03-.01a.07.07 0 0 0-.05-.02"/><path id="c82pl" d="M1280.89 7792.97l.04-.13c.32-.07.67-.13 1.03-.18l1.01-.12.01-.03a.16.16 0 0 1 .1-.03c.03 0 .07 0 .1-.03.02-.01.02-.03.02-.07 0-.03.01-.06.03-.08-.01 0-.02.01-.02.03v.01a.44.44 0 0 0-.03-.04v-.05a.77.77 0 0 0-.3-.06 5.42 5.42 0 0 0-.6.06h-.26a7.3 7.3 0 0 0-.89.13h-.01a16.94 16.94 0 0 1 .53-1.1l.3-.62a13.5 13.5 0 0 1 .3-.75c0-.03 0-.07.03-.1a.8.8 0 0 0 .08-.12.11.11 0 0 0 0-.11c-.01-.07-.06-.13-.15-.16a.61.61 0 0 0-.26-.06.72.72 0 0 0-.24.05c-.1.03-.15.06-.17.09a.24.24 0 0 0-.05.12l-.05.14a.52.52 0 0 1-.06.14.33.33 0 0 0-.05.13.09.09 0 0 0-.03.06c0 .03 0 .05-.03.08a14.94 14.94 0 0 0-1.03 2.44.82.82 0 0 1-.12.04l-.12.03-.18.02a8.13 8.13 0 0 0-.63.14l-.25.06-.16.06-.06.12a2.3 2.3 0 0 0-.05.12.78.78 0 0 0-.03.18c0 .06.02.1.06.12.01.02.03.02.06.02l.11-.02c.03 0 .07-.02.1-.05a.92.92 0 0 1 .08-.07 3.7 3.7 0 0 0 .36-.11 2.84 2.84 0 0 1 .68-.22 8.07 8.07 0 0 0-.24.75l-.31.96c-.11.32-.21.64-.3.98v.05l-.12.08-.2.11c-.06 0-.1.01-.14.03a4.91 4.91 0 0 0-.36.26 2.32 2.32 0 0 0-.25.14l-.17.08-.22.1-.2.09c-.02-.07-.01-.18 0-.34a7.64 7.64 0 0 1 .17-.97c.03-.16.05-.27.05-.34l.09-.3a.8.8 0 0 0 .03-.29c0-.08-.06-.15-.16-.21a.51.51 0 0 0-.28-.1.85.85 0 0 0-.36.12 8.11 8.11 0 0 0-1.04.73 20.76 20.76 0 0 1-.78.71.25.25 0 0 1-.16.09 4.64 4.64 0 0 1 .33-.76l.02-.14.03-.16.13-.22c.04-.07.04-.16 0-.27-.02-.08-.09-.14-.2-.18a.34.34 0 0 0-.39.13.53.53 0 0 1-.06.07l-.02.14-.04.18a.77.77 0 0 1-.08.14.74.74 0 0 0-.08.14c-.05.15-.12.3-.18.44a.67.67 0 0 0-.21.08l-.2.12-.2.1-.2.07a7 7 0 0 0-.65.27 44.26 44.26 0 0 1-1.03.47c-.12.05-.2.06-.22.03-.02-.02-.02-.08 0-.16a26.3 26.3 0 0 1 .68-1.31.29.29 0 0 0 .06-.2.23.23 0 0 0 .02-.11l-.02-.15a.17.17 0 0 0-.06-.1.55.55 0 0 1-.09-.09c-.02.02-.05.02-.1 0-.03-.03-.07-.03-.1-.01a.52.52 0 0 0-.2.08c-.11.17-.23.35-.33.55a26.37 26.37 0 0 0-.49 1.04.98.98 0 0 1-.07.2 1.99 1.99 0 0 0-.18.53c-.03.1-.03.21 0 .31.07.1.15.16.25.19s.21.04.35.04l.05.01c.01 0 .03 0 .05-.03.06.02.17-.01.34-.11a13.64 13.64 0 0 0 1.08-.71c.18-.13.31-.2.4-.24a7.84 7.84 0 0 0 .86-.5l.08-.07-.07.16c-.14.28-.24.6-.32.97l-.07.19a.31.31 0 0 0-.02.15c.02.07.07.13.16.18.09.06.17.07.24.06.08-.02.22-.13.4-.34l.7-.77c.1-.1.2-.18.3-.26.1-.07.2-.15.28-.23a6.3 6.3 0 0 1 .89-.76l.15-.13a.46.46 0 0 1 .18-.09l-.06.29a6.61 6.61 0 0 1-.2 1.04 84.8 84.8 0 0 0-.12.68c0 .1.03.2.1.31.08.12.16.17.25.15a1.75 1.75 0 0 0 .44-.05c.1-.03.21-.09.33-.17l.31-.2a4.87 4.87 0 0 1 .33-.23l.18-.14c.06-.03.1-.06.14-.1l.13-.14.04-.03-.1.47a7.24 7.24 0 0 0-.1 1.06c.01.04.05.08.12.11a.36.36 0 0 1 .13-.03c.05 0 .08-.02.11-.03.04-.01.06-.02.05-.03 0-.02.01-.03.05-.05l.02-.13c0-.04 0-.08.02-.13l.08-.13a.4.4 0 0 0 .01-.11c0-.05 0-.1.02-.14l.02-.13c0-.04.02-.09.04-.13 0-.03.01-.05.03-.08a.33.33 0 0 0 .05-.06.77.77 0 0 0 .07-.23.6.6 0 0 1 .08-.23.9.9 0 0 1 .08-.22 79.93 79.93 0 0 0 .95-2.93"/><path id="c82pb" d="M1280.13 7793.7h14.27v9.49h-14.27z"/><path id="c82pn" d="M1294.28 7794.9c.08 0 .12.02.12.04 0 .03-.02.07-.06.11l-.14.15-.14.15c.01 0 0 .02-.03.04a.96.96 0 0 1-.1.06c-.04.02-.1.05-.15.1l-.35.22a7479.33 7479.33 0 0 0-1.06.61l-.93.44a.79.79 0 0 1-.22.1l-.24.07-.35.08-.38.03c-.13 0-.26-.03-.37-.08a.64.64 0 0 1-.29-.24.52.52 0 0 1-.1-.28c-.01-.11 0-.23.02-.34a3.05 3.05 0 0 1 .26-.66.38.38 0 0 0 .1-.13c.03-.05.05-.1.05-.13l.36-.4-.03.02a.6.6 0 0 0-.23.15c-.01.01 0 .02.02.02-.04.05-.12.11-.24.2a12.9 12.9 0 0 1-.8.57l-.3.21-.24.16c-.08.05-.15.1-.22.17a.6.6 0 0 0-.13.07l-.13.09-.1.08a3.6 3.6 0 0 1-.16.1.3.3 0 0 0-.1.14.4.4 0 0 0-.17.23l-.1.3c-.24.52-.48 1.08-.72 1.66-.25.58-.53 1.14-.84 1.68a7.71 7.71 0 0 1-1.1 1.44c-.42.43-.9.76-1.46.98-.1.04-.2.06-.31.07-.11.02-.22 0-.32-.04a.86.86 0 0 1-.22-.24c-.06-.09-.08-.14-.05-.15a3 3 0 0 1 .32-1.4c.23-.49.53-.97.9-1.45.37-.47.77-.93 1.2-1.36a33.06 33.06 0 0 1 1.7-1.56 1.43 1.43 0 0 0 .24-.15l.05-.11c.03-.08.04-.12.02-.12l.08-.13.05-.09a2.9 2.9 0 0 1 .13-.36.23.23 0 0 0-.01-.14c-.02 0-.04.03-.05.08l-.04.01-.05.05-.05.06a.19.19 0 0 0-.1.06 1.7 1.7 0 0 1-.23.2l-.23.18a6.2 6.2 0 0 1-.76.37 2.57 2.57 0 0 1-.4 0c-.09 0-.18 0-.26-.02-.08 0-.13-.02-.14-.04h.02a.08.08 0 0 1-.04-.03c0-.02-.03-.03-.06-.03a.4.4 0 0 1-.07-.18v-.22l.04-.2c-.04.01-.07.03-.08.02a1.5 1.5 0 0 0-.38.23c-.1.1-.22.18-.34.26a1.5 1.5 0 0 1-.37.18.86.86 0 0 1-.53-.02.4.4 0 0 0-.07-.03.35.35 0 0 1-.16-.12l-.08-.17a1.45 1.45 0 0 1-.01-.55h-.04l-.01.03a.37.37 0 0 0-.06.03l-.06.05-.12.14a.42.42 0 0 1-.15.1.17.17 0 0 1-.07.08.32.32 0 0 0-.07.05v.02l-.01.02a.9.9 0 0 1-.08.03 3.46 3.46 0 0 1-.7.4c-.07.05-.13.08-.2.11a.32.32 0 0 1-.18.04h-.11a3.45 3.45 0 0 0-.31-.04.23.23 0 0 1-.17-.1c-.1-.05-.12-.16-.08-.33l.01-.01c.01 0 .02 0 .02-.03 0-.09.03-.18.08-.26l.15-.22c.07-.12.14-.24.23-.34.08-.1.17-.21.24-.32l.32-.3a16.05 16.05 0 0 1 .92-.79c.13-.1.23-.16.28-.17.1-.05.17-.1.23-.16a.53.53 0 0 1 .26-.15h.01l.01-.01a.3.3 0 0 1 .06 0c.02 0 .04 0 .06-.02a.4.4 0 0 0 .18.04c.03.04.07.09.12.12.04.04.06.09.06.14.02.03.03.06.01.1a.16.16 0 0 1-.07.1.1.1 0 0 1-.1.02c-.03 0-.06 0-.1.02a.84.84 0 0 0-.24.16l-.16.1-.02.03c-.03 0-.05 0-.08.02-.04 0-.06.04-.08.1a.66.66 0 0 0-.2.09l-.2.13a2.48 2.48 0 0 1-.24.21l-.22.2a5.25 5.25 0 0 0-.34.32.38.38 0 0 1-.15.11c0 .03-.01.06-.05.09v.03a.3.3 0 0 0-.12.1l-.1.14a.47.47 0 0 1-.1.2.36.36 0 0 0-.09.2 10.32 10.32 0 0 0 1.04-.66 50.36 50.36 0 0 0 1.05-.78.73.73 0 0 0 .21-.2h.04v-.02c.01-.03.02-.05.04-.06a.16.16 0 0 0 .04-.08l.01-.07.03-.06a.3.3 0 0 1 .09-.01h.24l.14.06c.06.03.1.09.1.18a.88.88 0 0 1-.12.22l-.14.22a.56.56 0 0 1-.1.2v.07c-.03.02-.05.05-.07.11l-.02.1c0 .03-.02.07-.05.12l-.07.29c0 .1.02.17.06.19.04.02.1.01.16-.01l.21-.11.2-.11c.15-.05.3-.13.46-.23.15-.1.29-.2.41-.26l.14-.04c.03-.07.09-.16.18-.28a5.98 5.98 0 0 1 .76-.8l.26-.27.07-.05.11-.08c.05-.02.09-.05.12-.08l.08-.04c.1-.05.19-.1.28-.17a1.31 1.31 0 0 1 .39-.18.7.7 0 0 1 .07 0c.14 0 .2.03.19.09-.01.05-.06.1-.14.17l-.27.2c-.1.08-.17.14-.21.2a2.9 2.9 0 0 0-.17.12c-.05.04-.1.1-.13.17a.99.99 0 0 1-.14.11.25.25 0 0 0-.1.16 1.48 1.48 0 0 0-.27.3.46.46 0 0 0-.2.19 5.59 5.59 0 0 0-.37.54 1.81 1.81 0 0 0-.2.51c.03.02.06.02.08.01l.06-.02a5.88 5.88 0 0 0 .48-.32 9.64 9.64 0 0 0 1.16-.89.62.62 0 0 0 .14-.12l.13-.14.14-.1c.05-.03.08-.06.08-.1l.02-.08c0-.01.01-.04.06-.08l.08-.1c.03-.03.08-.05.15-.05.02 0 .05 0 .07.02h.08c.01.02.03.03.05.02.03 0 .05 0 .07.02.07.07.1.13.12.18v.2c-.03.06-.05.14-.06.22a.76.76 0 0 1-.08.22c-.01.13-.04.26-.1.37-.04.12-.08.24-.1.36a.87.87 0 0 1 .27-.26 5.34 5.34 0 0 1 .8-.45c.14-.06.23-.11.28-.16h.04l.05-.05.06-.02.14-.1a.48.48 0 0 1 .18-.06v-.01c.16-.1.33-.19.5-.27.16-.08.33-.14.5-.19a2.47 2.47 0 0 1 .78-.5 4.65 4.65 0 0 0 .46-.21c.3 0 .5.05.6.16.1.1.14.21.14.31 0 .04-.03.08-.09.12a.52.52 0 0 0-.11.13 2.54 2.54 0 0 0-.2.23c-.34.3-.68.57-1.02.8a.76.76 0 0 1-.34.14c-.14.02-.29.03-.43.01a1.19 1.19 0 0 0-.28.46.74.74 0 0 0-.04.27c0 .09.04.16.11.22.17.02.32 0 .45-.05a3.7 3.7 0 0 1 .67-.22 50.1 50.1 0 0 0 2.6-1.3l.15-.1.17-.05.03-.01.03-.02m-7.77 2.85a.05.05 0 0 0 .02-.07.36.36 0 0 1-.17.1c-.07.01-.11.04-.13.08a70.1 70.1 0 0 0-1.96 1.98c-.13.18-.28.35-.43.53-.16.18-.3.37-.45.57-.14.2-.26.42-.36.64-.1.22-.18.46-.21.72.02.02.03.06.02.11 0 .06.01.1.06.15.28-.04.55-.16.81-.35.27-.2.51-.44.75-.72a13.58 13.58 0 0 0 1.7-2.91c.15-.31.26-.56.34-.76-.01-.03-.01-.06 0-.07m4.68-2.96a6 6 0 0 0-.66.72c.07 0 .15-.03.22-.07l.21-.13a9.44 9.44 0 0 0 1.04-1.01c-.3.11-.58.28-.81.5m-.6-.27h-.03l.02.01.02-.01"/><path id="c82pc" d="M1210 7803.19h140v-52h-140z"/><path id="c82pp" d="M1294.99 7793.07h37.74v-.66H1295z"/><path id="c82pq" d="M1227.26 7793.07H1265v-.66h-37.74z"/><path id="c82pr" d="M1294.99 7770.84h37.74v-.67H1295z"/><path id="c82ps" d="M1227.26 7770.84H1265v-.67h-37.74z"/><path id="c82pt" d="M1215.47 7776.77h.74c.19 0 .32.05.4.14.08.08.12.23.12.44v6.38c0 .22-.05.37-.13.46-.1.08-.26.12-.51.12h-.62v.56h3.82v-.56h-.64c-.24 0-.4-.04-.5-.12-.08-.09-.12-.24-.12-.46v-6.42c0-.2.04-.34.12-.43.07-.09.2-.13.36-.13h3.06c.18 0 .32.04.4.13.07.08.11.23.11.43v6.42c0 .22-.04.37-.13.46-.09.08-.25.12-.5.12h-.64v.56h3.84v-.56h-.64c-.25 0-.41-.04-.5-.12-.1-.09-.13-.24-.13-.46v-6.38c0-.2.04-.35.12-.44.08-.1.2-.14.37-.14h.78v-.57h-9.18z"/><path id="c82pu" d="M1234.94 7775.98c-1.2 0-2.19.43-2.96 1.28a4.68 4.68 0 0 0-1.16 3.28c0 1.33.38 2.41 1.15 3.26a3.84 3.84 0 0 0 2.97 1.27c1.2 0 2.2-.42 2.96-1.26a4.68 4.68 0 0 0 1.15-3.27 4.7 4.7 0 0 0-1.16-3.28 3.8 3.8 0 0 0-2.95-1.28m1.92 7.56c-.42.66-1.07 1-1.92 1-.87 0-1.52-.34-1.94-1a5.69 5.69 0 0 1-.63-3c0-1.35.21-2.35.64-3.01a2.14 2.14 0 0 1 1.93-.99c.86 0 1.5.33 1.93.98.42.65.63 1.66.63 3.02 0 1.33-.22 2.33-.64 3"/><path id="c82pv" d="M1251.87 7776.91c.08-.1.2-.14.37-.14h.78v-.56h-6.7v.56h.42c.34 0 .57.08.69.22.11.15.17.49.17 1.02 0 1.23-.13 2.4-.39 3.52a9.38 9.38 0 0 1-1.07 2.78h-1.22v2.95h.44c.07-.9.26-1.51.6-1.86.32-.35.87-.53 1.65-.53h2.7c.79 0 1.34.18 1.67.53.33.35.52.97.58 1.86h.46v-2.95h-1.27v-6.96c0-.2.04-.35.12-.44zm-1.42 7.4h-3.6c.46-.86.8-1.89 1.03-3.1.23-1.2.37-2.68.4-4.44h2.17z"/><path id="c82pw" d="M1260.7 7777.26a4.68 4.68 0 0 0-1.16 3.28c0 1.33.39 2.41 1.16 3.26a3.83 3.83 0 0 0 2.97 1.27c1.2 0 2.2-.42 2.96-1.26a4.68 4.68 0 0 0 1.15-3.27 4.7 4.7 0 0 0-1.16-3.28 3.8 3.8 0 0 0-2.95-1.28c-1.2 0-2.2.43-2.97 1.28m4.9.26c.41.65.62 1.66.62 3.02 0 1.33-.2 2.33-.63 3-.43.66-1.07 1-1.93 1-.86 0-1.5-.34-1.93-1a5.69 5.69 0 0 1-.63-3c0-1.35.21-2.35.63-3.01a2.14 2.14 0 0 1 1.93-.99c.87 0 1.51.33 1.93.98"/><path id="c82px" d="M1296.5 7784.19c-.08.08-.25.12-.5.12h-.62v.56h3.82v-.56h-.53c-.31 0-.5-.04-.6-.12-.08-.08-.12-.23-.12-.46v-6.38c0-.25.05-.4.17-.49.1-.07.4-.11.84-.11 1.15 0 1.9.16 2.27.5.37.32.63 1 .8 2.02h.52l-.16-3.07h-7v.57h.74c.18 0 .31.05.4.14.07.08.11.23.11.44v6.38c0 .22-.04.37-.13.46"/><path id="c82py" d="M1310.21 7784.19c-.09.08-.26.12-.5.12h-.62v.56h3.92v-.56h-.74c-.25 0-.41-.04-.5-.12-.08-.09-.12-.24-.12-.46v-2.72a14.85 14.85 0 0 0 1.2.04 4.7 4.7 0 0 0 2.66-.62c.59-.4.88-1.02.88-1.83 0-.83-.25-1.44-.76-1.82-.5-.38-1.31-.58-2.42-.58h-4.12v.57h.74c.18 0 .31.05.4.14.07.08.11.23.11.44v6.38c0 .22-.04.37-.13.46zm1.44-6.85c0-.22.04-.37.12-.46.07-.08.2-.12.4-.12h.01a.8.8 0 0 1 .09-.01h.63c.78 0 1.33.14 1.64.42.3.27.46.75.46 1.41 0 .71-.19 1.2-.56 1.49-.37.28-1.07.42-2.08.42a13.14 13.14 0 0 1-.71-.04z"/><path id="c82pz" d="M1327.53 7784.23c-.1.04-.26.07-.51.07h-.54v.57h3.58v-.57h-.25c-.25 0-.42-.04-.52-.12-.1-.07-.2-.23-.3-.47l-3.05-7.65h-.46l-2.82 7.23c-.16.4-.33.67-.5.8-.17.14-.41.2-.73.2h-.1v.58h3.1v-.57h-.3c-.3 0-.53-.05-.67-.16-.14-.1-.21-.25-.21-.46a3.72 3.72 0 0 1 .17-.7l.36-.93h3.23l.55 1.51a2.35 2.35 0 0 1 .11.42c0 .12-.05.2-.14.25zm-3.53-2.8l1.37-3.47 1.42 3.48z"/><path id="c82pA" d="M1337.83 7776.77h.42c.34 0 .57.08.69.22.11.15.17.49.17 1.02 0 1.23-.13 2.4-.4 3.52a9.35 9.35 0 0 1-1.06 2.78h-1.22v2.95h.44c.06-.9.26-1.51.59-1.86.33-.35.88-.53 1.66-.53h2.7c.78 0 1.34.18 1.67.53.33.35.52.97.58 1.86h.46v-2.95h-1.27v-6.96c0-.2.04-.35.12-.44.08-.1.2-.14.37-.14h.78v-.56h-6.7zm1.96 0h2.16v7.54h-3.58c.45-.86.79-1.89 1.02-3.1.23-1.2.37-2.68.4-4.44z"/><path id="c82pB" d="M1281.7 7776.9c.08-.08.2-.13.37-.13h.78v-.56h-6.86v.56h.4c.34 0 .57.07.69.2.11.15.17.42.17.85l-.05 1.17c-.07 1.27-.38 3.9-.83 4.46-.26.32-.66.53-1.24.68l.07.2.27.77.02.03.1-.03c1.84-.6 1.95-2.66 2.18-5l.1-1.47c.04-.72.07-1.14.09-1.24.05-.23.15-.4.29-.48.14-.1.38-.14.72-.14h1.31v6.96c0 .22-.04.37-.13.46-.09.08-.26.12-.5.12h-.64v.56h3.84v-.56h-.64c-.24 0-.4-.04-.5-.12-.08-.09-.12-.24-.12-.46v-6.38c0-.2.04-.35.11-.44"/><clipPath id="c82pg"><use xlink:href="#c82pa"/></clipPath><clipPath id="c82pm"><use xlink:href="#c82pb"/></clipPath><clipPath id="c82po"><use xlink:href="#c82pc"/></clipPath></defs><g><g transform="translate(-1210 -7751)"><g><g><use fill="#fefefe" xlink:href="#c82pd"/></g><g><g><use fill="#fefefe" xlink:href="#c82pe"/></g><g><use fill="#fefefe" xlink:href="#c82pf"/></g><g><g/><g clip-path="url(#c82pg)"><use fill="#fefefe" xlink:href="#c82ph"/></g></g><g><use fill="#fefefe" xlink:href="#c82pi"/></g><g><use fill="#fefefe" xlink:href="#c82pj"/></g><g><use fill="#fefefe" xlink:href="#c82pk"/></g><g><use fill="#fefefe" xlink:href="#c82pl"/></g><g><g/><g clip-path="url(#c82pm)"><use fill="#fefefe" xlink:href="#c82pn"/></g></g><g/><g clip-path="url(#c82po)"><use fill="#fefefe" xlink:href="#c82pp"/></g><g clip-path="url(#c82po)"><use fill="#fefefe" xlink:href="#c82pq"/></g><g clip-path="url(#c82po)"><use fill="#fefefe" xlink:href="#c82pr"/></g><g clip-path="url(#c82po)"><use fill="#fefefe" xlink:href="#c82ps"/></g><g clip-path="url(#c82po)"><use fill="#fefefe" xlink:href="#c82pt"/></g><g clip-path="url(#c82po)"><use fill="#fefefe" xlink:href="#c82pu"/></g><g clip-path="url(#c82po)"><use fill="#fefefe" xlink:href="#c82pv"/></g><g clip-path="url(#c82po)"><use fill="#fefefe" xlink:href="#c82pw"/></g><g clip-path="url(#c82po)"><use fill="#fefefe" xlink:href="#c82px"/></g><g clip-path="url(#c82po)"><use fill="#fefefe" xlink:href="#c82py"/></g><g clip-path="url(#c82po)"><use fill="#fefefe" xlink:href="#c82pz"/></g><g clip-path="url(#c82po)"><use fill="#fefefe" xlink:href="#c82pA"/></g><g clip-path="url(#c82po)"><use fill="#fefefe" xlink:href="#c82pB"/></g></g></g></g></g></svg>