<svg xmlns="http://www.w3.org/2000/svg" xmlns:xlink="http://www.w3.org/1999/xlink" width="99" height="123" viewBox="0 0 99 123"><defs><path id="gf9ob" d="M1233.51 8021.3c.68 0 1.33-.05 1.51-.1.25-.06.46-.2.69-.46.16-.22.34-.64.34-.92 0-.1.04-.14.11-.14l.4.05c.08.01.14.03.12.12-.04.25-.04 1.02-.04 1.54 0 .68.06 1.39.09 1.7.01.1-.05.1-.12.12l-.36.08c-.06.01-.09-.02-.11-.12a4.7 4.7 0 0 0-.3-.76 1.2 1.2 0 0 0-.82-.52c-.4-.06-.86-.1-1.5-.1v.9c0 .8.07 2.25.07 2.52 0 .77.16 1.04.35 1.13.22.1.5.14 1.25.14.25 0 .87-.02 1.18-.05.3-.03.74-.18 1.13-.5.38-.3 1.21-1.23 1.5-1.58.07-.06.11-.08.16-.05l.25.15c.06.03.07.07.06.12l-.67 2.25c-.04.13-.15.22-.33.22l-1.34-.03-5.1-.01-1.26.01-.64.03c-.1 0-.13-.04-.13-.16v-.32c0-.08.04-.13.15-.13h.44c.68 0 .74-.1.74-.63v-4.98c0-1.24-.03-3.08-.04-3.22-.06-.48-.21-.58-.6-.58h-.59c-.06 0-.07-.05-.07-.15v-.36c0-.05.01-.1.1-.1.33 0 .85.04 2.2.04l5.2-.02c.23 0 .52-.03.59-.03.07 0 .1.03.12.08.06.2.55 2.25.6 2.4.04.07.04.1-.04.15l-.24.12c-.06.03-.13.01-.17-.06a16.47 16.47 0 0 0-1.75-1.67c-.31-.2-.73-.39-1.13-.4l-1.96-.06z"/><path id="gf9oc" d="M1243.2 8020.16c0-.39-.05-2.5-.08-2.73-.05-.35-.24-.42-.5-.42h-.73c-.08 0-.12 0-.12-.1v-.43c0-.06.04-.08.1-.08.2 0 .85.05 2.33.05l2.2-.05c2.02 0 3.62.18 5.03 1.36a4.73 4.73 0 0 1 1.66 3.78c0 1.72-.49 2.85-1.47 3.92-1.43 1.57-3.97 1.58-4.9 1.58-.24 0-1.99-.04-2.8-.04-1.3 0-1.88.04-2.1.04-.06 0-.1-.03-.1-.13v-.4c0-.05.05-.08.12-.08h.77c.28 0 .45-.12.48-.36.04-.31.1-3.66.1-4.8zm2.21 1.44l.03 3.65c0 .3.06.54.26.82.17.27.68.36 1.18.36.86 0 2-.43 2.77-1.46a5.77 5.77 0 0 0 1.05-3.4c0-1.22-.5-2.47-1.2-3.24a4.37 4.37 0 0 0-2.95-1.36c-.4 0-.63.01-.83.12-.22.1-.28.34-.3.64v2.82z"/><path id="gf9od" d="M1259.11 8021.3c.68 0 1.33-.05 1.51-.1.26-.06.46-.2.69-.46.16-.22.34-.64.34-.92 0-.1.04-.14.11-.14l.4.05c.08.01.14.03.12.12-.04.25-.04 1.02-.04 1.54 0 .68.06 1.39.09 1.7.01.1-.05.1-.12.12l-.36.08c-.06.01-.09-.02-.11-.12a4.7 4.7 0 0 0-.3-.76 1.2 1.2 0 0 0-.82-.52c-.4-.06-.86-.1-1.5-.1v.9c0 .8.07 2.25.07 2.52 0 .77.16 1.04.35 1.13.22.1.5.14 1.25.14.25 0 .87-.02 1.18-.05.3-.03.74-.18 1.13-.5.38-.3 1.21-1.23 1.5-1.58.07-.06.11-.08.16-.05l.25.15c.06.03.07.07.06.12l-.67 2.25c-.04.13-.15.22-.33.22l-1.34-.03-5.1-.01-1.26.01-.64.03c-.1 0-.13-.04-.13-.16v-.32c0-.08.05-.13.15-.13h.44c.68 0 .74-.1.74-.63v-4.98c0-1.24-.03-3.08-.04-3.22-.06-.48-.2-.58-.6-.58h-.59c-.05 0-.07-.05-.07-.15v-.36c0-.05.02-.1.1-.1.33 0 .85.04 2.2.04l5.2-.02c.23 0 .52-.03.59-.03.07 0 .1.03.12.08.06.2.55 2.25.6 2.4.04.07.04.1-.04.15l-.24.12c-.06.03-.13.01-.17-.06a16.47 16.47 0 0 0-1.75-1.67c-.31-.2-.73-.39-1.13-.4l-1.96-.06z"/><path id="gf9oe" d="M1270.9 8022.33c0 .26 0 3.47.05 4.07h.84c.7 0 1.36 0 2.16-.07.8-.08 1.81-1.86 2.03-2.42.05-.09.1-.13.18-.09l.3.12c.04.03.04.05.03.14-.05.1-.64 2.56-.73 2.96-.38-.03-4.65-.04-6.01-.04-1.47 0-2 .04-2.2.04-.1 0-.12-.03-.12-.13v-.38c0-.07.02-.1.1-.1h.47c.54 0 .63-.2.63-.37l.05-4.9v-.84c0-.95-.03-2.53-.05-2.77-.02-.39-.1-.54-.44-.54h-.55c-.09 0-.1-.07-.1-.14v-.36c0-.08.01-.1.1-.1.16 0 .7.04 2.05.04 1.73 0 2.35-.05 2.49-.05.11 0 .13.05.13.15v.35c0 .07-.03.11-.15.11h-.7c-.45 0-.51.15-.51.56 0 .2-.05 2.44-.05 3.48z"/><path id="gf9of" d="M1280.16 8020.16c0-.39-.05-2.5-.07-2.73-.05-.35-.24-.42-.5-.42h-.74c-.07 0-.11 0-.11-.1v-.43c0-.06.04-.08.1-.08.2 0 .84.05 2.33.05l2.2-.05c2.02 0 3.62.18 5.03 1.36a4.73 4.73 0 0 1 1.66 3.78c0 1.72-.5 2.85-1.47 3.92-1.44 1.57-3.97 1.58-4.9 1.58-.24 0-1.99-.04-2.8-.04-1.3 0-1.89.04-2.1.04-.07 0-.1-.03-.1-.13v-.4c0-.05.05-.08.12-.08h.77c.28 0 .45-.12.48-.36.04-.31.1-3.66.1-4.8zm2.22 1.44l.03 3.65c0 .3.06.54.25.82.18.27.68.36 1.19.36.86 0 2-.43 2.77-1.46a5.77 5.77 0 0 0 1.05-3.4c0-1.22-.5-2.47-1.2-3.24a4.37 4.37 0 0 0-2.95-1.36c-.41 0-.63.01-.83.12-.22.1-.28.34-.3.64v2.82z"/><path id="gf9og" d="M1295.2 8026.25a5.22 5.22 0 0 1-2.18-4.42c0-.9.23-2.32 1.37-3.71a5.25 5.25 0 0 1 4.32-1.9c1.22 0 2.36.2 3.6 1.18 1.14.9 2.04 2.4 2.04 4.46 0 1.09-.34 2.22-1.11 3.26a5.29 5.29 0 0 1-4.57 2.1 6.65 6.65 0 0 1-3.48-.97m6.83-4.27c0-3.26-2.13-5.05-3.37-5.05-.3 0-1.04-.08-1.95.8-.87.84-1.31 2.4-1.31 3.62 0 3.82 2.18 5.17 3.4 5.17 2.74 0 3.23-3.32 3.23-4.54"/><path id="gf9oh" d="M1308.13 8020.22l-.01-2.46c-.02-.5-.21-.75-.42-.75h-.6c-.07 0-.08-.04-.08-.1v-.4c0-.08.01-.1.09-.1.13 0 .6.04 2.2.04.84 0 2.14-.05 2.75-.05 1.15 0 2.01.42 2.62.99.53.49.84 1.07.84 1.62 0 1.9-1.4 2.74-2.7 2.86v.1c.45.15.69.44.97.8.2.23 1 1.56 1.13 1.74.09.13.89 1.26 1.18 1.6.18.2.74.32 1.08.32.1 0 .12.06.12.12v.36c0 .09-.01.13-.12.13s-.5-.04-1.64-.04c-.43 0-.98.03-1.4.04-.45-.34-1.37-2.07-1.62-2.57-.5-1.02-1.11-2.12-1.83-2.12h-.5v.76c0 .88.05 2.55.07 2.74.03.31.15.58.37.58h.61c.1 0 .12.05.12.12v.36c0 .1-.01.13-.24.13-.01 0-.38-.04-1.94-.04-1.57 0-1.9.04-2.07.04-.12 0-.12-.04-.12-.15v-.34c0-.07 0-.12.07-.12h.45c.32 0 .59-.1.59-.48.03-1.47.03-2.87.03-4.29zm2.07 1.6c.29.02.46.02.6.02 1.96 0 2.42-1.88 2.42-2.57a2.5 2.5 0 0 0-.56-1.67 2.62 2.62 0 0 0-1.65-.66c-.25 0-.45.03-.57.14-.09.06-.13.22-.16.4z"/><path id="gf9oa" d="M1319.55 8016.35h8.95v10.7h-8.95z"/><path id="gf9oj" d="M1323.15 8021.74c.58 0 1.19-.05 1.47-.09.25-.03.53-.23.77-.54.16-.2.26-.52.32-.79.02-.07.06-.12.12-.12l.34.03c.06 0 .1.05.1.1-.04.26-.04 1.5-.04 1.7 0 .54.05 1.26.08 1.56 0 .07-.03.1-.1.11l-.33.08c-.06.01-.1-.03-.12-.12-.03-.12-.2-.57-.28-.72a1.55 1.55 0 0 0-.73-.59c-.47-.1-1-.1-1.6-.1v.56l.02 3.14c0 .4.14.48.35.48h.87c.1 0 .14.03.14.09v.4c0 .1-.03.12-.12.12-.15 0-.74-.04-2.28-.04-1.45 0-2.02.04-2.24.04-.06 0-.09-.03-.09-.13v-.4c0-.06.05-.08.1-.08h.53c.3 0 .43-.06.44-.3.01-.3.06-2.17.06-4.73v-1.05l-.03-2.9c0-.28-.2-.43-.61-.43h-.6c-.1 0-.14-.03-.14-.1v-.43c0-.05.05-.08.1-.08.17 0 .73.04 2.54.04l4.81-.04c.33 0 .66-.06.77-.06.08 0 .12.09.15.25l.58 2.43c.01.06 0 .1-.05.12l-.3.16c-.07.03-.1 0-.2-.15-.19-.25-.55-.73-1.15-1.37-.27-.3-.67-.58-1.03-.67-.37-.1-1.94-.15-2.6-.15l-.02 4.07z"/><path id="gf9ok" d="M1241.13 8035.46c.15-.05.15-.17.16-.4v-1.13-1.16c-.01-.13-.04-.19-.13-.22-.07-.03-.18-.04-.28-.05-.02 0-.01-.07 0-.07l.58.01h2.1l.54-.01v.07l-.22.05c-.12.03-.16.08-.16.27l-.02 1.18c0 .44 0 1.07.02 1.22 0 .14.03.2.13.24l.28.05-.01.07-.55-.01-.58.01v-.07c.1-.01.23-.03.3-.06.08-.04.09-.12.1-.24v-1.26l-.01-1.34c0-.02-.03-.03-.04-.03h-1.7l-.02.03V8035.14c0 .17.02.28.14.32l.27.05-.01.07-.55-.01-.6.01v-.07l.26-.05"/><path id="gf9ol" d="M1245.56 8032.43l.53.01h.98a6.27 6.27 0 0 0 .53 0c-.04.17-.08.48-.1.65 0 .01-.06.01-.07 0a1.78 1.78 0 0 0-.04-.3c-.04-.12-.07-.2-.3-.21h-.77c-.03 0-.05.05-.05.07v1.24h.82c.16-.01.19-.1.22-.17l.05-.2c.01 0 .08 0 .08.02a3.3 3.3 0 0 0-.03.45v.4c0 .03-.07.03-.08.01 0-.07-.01-.11-.03-.17-.01-.06-.03-.17-.2-.18-.16-.01-.68-.02-.82 0l-.02.04v1.14c.02.14.08.18.13.19.1.02.29.03.65.03.3 0 .37-.07.43-.13.08-.07.2-.26.28-.46l.06.03c-.02.17-.15.54-.2.64-.03.05-.05.06-.3.06-.26 0-.42-.02-1.21-.02-.34 0-.46.02-.66.02v-.08l.32-.04c.13-.03.17-.09.18-.3a45.19 45.19 0 0 0 0-2.35c-.01-.2-.03-.25-.16-.28a1.42 1.42 0 0 0-.23-.04c-.02-.01-.01-.06 0-.07"/><path id="gf9om" d="M1250 8034.16l.02-.02c.05 0 .1.02.23.02a.7.7 0 0 0 .37-.09c.26-.15.32-.4.32-.68 0-.47-.22-.85-.88-.85-.06 0-.17 0-.2.02-.02 0-.04.03-.04.07 0 .12-.02.5-.02 1.2v1.31c.01.28.06.3.21.33l.24.04c.02.01.01.07 0 .08l-.6-.02-.59.02c-.01-.01-.02-.07 0-.08l.24-.04c.1-.03.16-.02.17-.3.01-.16.03-.44.03-1.2v-1.14c-.02-.17-.04-.25-.17-.28a1.67 1.67 0 0 0-.25-.05l.01-.07.55.01h.7c.17 0 .46.03.64.18.16.13.3.33.3.65 0 .47-.26.76-.53.89a1.1 1.1 0 0 1-.7.08.2.2 0 0 1-.05-.08"/><path id="gf9on" d="M1252.46 8032.43l.59.01.52-.01c.01.01.01.06 0 .07l-.22.05c-.1.03-.13.07-.14.21l-.01 1.17c0 1.05 0 1.34.02 1.43 0 .04.04.05.05.05.05.01 1 .02 1.07.01.03 0 .07-.02.07-.06.02-.2.02-1 .02-1.43v-1.17c-.02-.13-.04-.16-.11-.2-.07-.03-.14-.04-.27-.06v-.07l.54.01.52-.01c.01.02 0 .06 0 .07-.06.01-.17.02-.22.04-.1.03-.13.09-.14.23a38.45 38.45 0 0 0 0 2.58c0 .02.02.06.06.06.19.01 1.04.02 1.11 0 .02 0 .03-.02.04-.04v-1.35-1.3c-.01-.07-.04-.14-.12-.17l-.25-.05v-.07l.55.01.54-.01v.07l-.25.05c-.1.04-.13.1-.13.3a33.9 33.9 0 0 0-.01 2.4c.01.13.04.17.13.2.07.03.18.05.28.06v.08l-.52-.02h-3.12l-.6.02v-.08l.26-.05c.15-.05.14-.14.15-.36a51.8 51.8 0 0 0 0-2.33c0-.13-.03-.17-.1-.2-.07-.04-.2-.05-.3-.06-.02-.01-.02-.07 0-.08"/><path id="gf9oo" d="M1258.5 8035.04c.3-.73.76-2.04.87-2.35.04-.1.06-.19.07-.25H1259.67l.07.22c.09.26.67 2.11.83 2.49.13.3.15.32.49.36l-.01.07-.53-.01-.57.01v-.07l.26-.05c.08-.04.08-.07.06-.14-.06-.22-.25-.77-.35-1.05l-.03-.03H1259a9.26 9.26 0 0 0-.37 1c-.02.1-.02.19.15.23l.2.04c.02.01.02.06 0 .07l-.57-.01-.48.01c-.02 0-.02-.06 0-.07.35-.05.4-.09.56-.47m.97-2.2l-.41 1.2c0 .02 0 .03.02.03l.44.01h.34v-.04l-.37-1.2h-.02"/><path id="gf9op" d="M1264.16 8035.04c.31-.73.77-2.04.88-2.33.04-.1.06-.2.07-.27h.24c0 .04.02.14.06.24.09.27.68 2.1.83 2.47.13.3.15.32.49.36.01.01 0 .07-.01.07l-.53-.01-.57.01s-.01-.06 0-.07l.25-.05c.08-.04.08-.07.06-.14-.1-.35-.6-1.88-.79-2.46h-.02c-.14.4-.7 1.96-.8 2.28-.08.2-.03.3.12.33l.22.04-.01.07-.57-.01-.48.01c-.01 0-.01-.07 0-.07.35-.05.4-.09.56-.47"/><path id="gf9oq" d="M1267.96 8032.43l.6.01.48-.01c0 .01.01.06 0 .07l-.2.03c-.12.03-.14.11-.15.27a33.94 33.94 0 0 0 0 2.38c0 .16.02.25.15.28l.26.05v.08l-.52-.02-.61.02c-.02-.02-.01-.07 0-.08.07 0 .16-.02.22-.04.13-.02.15-.1.16-.22l.02-1.43-.01-1.01c-.02-.12-.01-.23-.13-.26a2.32 2.32 0 0 0-.27-.05c-.02 0 0-.06 0-.07"/><path id="gf9or" d="M1270.45 8032.43l.58.01.52-.01c.01.01.01.06 0 .07-.06.01-.16.02-.21.04-.1.03-.14.05-.15.22l-.01 1.09.02.04h1.79l.02-.02-.01-1.14c0-.1-.03-.15-.1-.18-.1-.03-.17-.04-.26-.05-.02-.01-.02-.06 0-.07l.54.01.54-.01c0 .01.02.06 0 .07l-.23.05c-.1.04-.15.07-.15.3a33.9 33.9 0 0 0 0 2.38c0 .14.03.2.13.23l.28.05-.01.08-.56-.02-.57.02v-.08l.26-.04c.1-.03.13-.07.13-.26v-1.11l-.01-.04h-1.79l-.02.03.01 1.05c.02.18 0 .28.13.31.07.02.1.04.28.06 0 .02 0 .07-.02.08l-.54-.02-.6.02v-.08l.26-.05c.15-.05.15-.17.16-.4a86.16 86.16 0 0 0 0-2.3c-.01-.14-.06-.19-.13-.21l-.28-.05c-.02-.01-.02-.06 0-.07"/><path id="gf9os" d="M1275.1 8032.43l.6.01.48-.01c.01.01.02.06 0 .07l-.2.03c-.11.03-.13.11-.15.27a34.99 34.99 0 0 0 0 2.38c.01.16.03.25.15.28l.26.05c.02.02 0 .07 0 .08l-.52-.02-.61.02c-.02-.02-.01-.07 0-.08.07 0 .17-.02.23-.04.13-.02.14-.1.15-.22.02-.12.02-1 .02-1.43l-.01-1.01c-.02-.12-.01-.23-.13-.26a2.35 2.35 0 0 0-.27-.05c-.02 0 0-.06 0-.07"/><path id="gf9ot" d="M1280.11 8032.54c-.1.02-.18.07-.18.2l-.02 1.3.02 1.14c0 .19.05.26.17.3l.23.03v.08l-.57-.02-.53.02v-.08c.13-.01.17-.03.24-.04.09-.03.12-.07.13-.3v-1.02l-.01-.04-.18.01a.51.51 0 0 0-.35.22c-.24.3-.56.79-.75 1-.1.1-.16.15-.23.18-.15.07-.41.1-.6.08v-.07c.23-.02.27 0 .52-.28.23-.25.73-1.04.95-1.14 0 0 .02-.01 0-.02-.4-.1-.72-.39-.72-.84 0-.45.33-.82 1.03-.82l.6.01.46-.01s.01.07 0 .07l-.2.04m-.9 0c-.37 0-.65.23-.65.67 0 .74.62.81 1.02.8l.02-.03c0-.34 0-1.17-.02-1.34 0-.02-.02-.05-.05-.06a1.01 1.01 0 0 0-.32-.04"/><path id="gf9ou" d="M1283.69 8035.46c.14-.05.14-.17.15-.4v-1.13-1.16c-.01-.13-.04-.19-.13-.22a1.17 1.17 0 0 0-.28-.05c-.02 0-.01-.07 0-.07l.58.01h2.1l.54-.01v.07l-.22.05c-.12.03-.16.08-.16.27l-.02 1.18c0 .44 0 1.07.02 1.22.01.14.03.2.13.24l.28.05v.07l-.56-.01-.58.01v-.07c.1-.01.23-.03.3-.06.08-.04.09-.12.1-.24v-1.26l-.01-1.34c0-.02-.03-.03-.04-.03h-1.7l-.02.03V8035.14c0 .17.02.28.14.32l.27.05-.01.07-.55-.01-.6.01v-.07l.27-.05"/><path id="gf9ov" d="M1288.1 8032.43l.54.01h.98a6.33 6.33 0 0 0 .53 0c-.05.17-.08.48-.09.65h-.08a1.78 1.78 0 0 0-.04-.3c-.04-.12-.07-.2-.3-.21h-.77c-.04 0-.05.05-.05.07l-.01 1.2.01.04h.82c.16-.01.19-.1.22-.17l.05-.2c.01 0 .08 0 .08.02-.01.08-.03.28-.03.45v.4c0 .03-.07.03-.08.01l-.03-.17c-.02-.06-.04-.17-.2-.18a9.97 9.97 0 0 0-.82 0l-.02.04v1.14c.01.14.08.18.13.19.1.02.29.03.65.03.3 0 .37-.07.43-.13.08-.07.2-.26.28-.46l.06.03c-.02.17-.15.54-.2.64-.04.05-.05.06-.31.06-.25 0-.41-.02-1.2-.02-.34 0-.46.02-.66.02v-.08l.32-.04c.12-.03.17-.09.18-.3a60.91 60.91 0 0 0 0-2.35c-.01-.2-.03-.25-.16-.28a1.42 1.42 0 0 0-.23-.04c-.02-.01-.01-.06 0-.07"/><path id="gf9ow" d="M1291.56 8032.43l.54.01.46-.01c.01 0 .01.06 0 .07-.24.05-.27.09-.28.19v.64c.01.6.44.66.74.66.2 0 .42-.04.6-.13v-.03-1.09c-.02-.13-.05-.17-.17-.2a1.75 1.75 0 0 0-.2-.04v-.07l.54.01.54-.01c.01 0 .01.06 0 .07a2.5 2.5 0 0 0-.23.05c-.1.03-.14.07-.15.25a56.33 56.33 0 0 0 0 2.46c.01.1.04.18.17.21l.24.04v.08l-.52-.02c-.32 0-.44.02-.6.02-.02-.01-.02-.08 0-.08l.21-.03c.15-.03.16-.1.17-.4v-1.11s0-.03-.01-.02c-.24.13-.53.22-.8.22-.3 0-.55-.06-.73-.3-.08-.1-.13-.25-.13-.56v-.5c0-.15-.03-.24-.18-.28a1.7 1.7 0 0 0-.21-.03c-.01-.02-.01-.05 0-.07"/><path id="gf9ox" d="M1295.79 8032.43l.54.01h.98a6.3 6.3 0 0 0 .52 0c-.04.17-.07.48-.09.65h-.08a1.78 1.78 0 0 0-.04-.3c-.04-.12-.07-.2-.29-.21h-.77c-.04 0-.06.05-.06.07v1.24h.82c.16-.01.2-.1.22-.17l.05-.2c.02 0 .08 0 .09.02-.02.08-.04.28-.04.45l.01.4c-.01.03-.07.03-.08.01a1.07 1.07 0 0 0-.04-.17c-.01-.06-.03-.17-.2-.18-.16-.01-.68-.02-.82 0l-.01.04v1.14c0 .14.08.18.13.19.1.02.28.03.64.03.31 0 .37-.07.44-.13.07-.07.19-.26.27-.46l.07.03c-.03.17-.15.54-.21.64-.03.05-.05.06-.3.06-.26 0-.42-.02-1.21-.02-.34 0-.46.02-.65.02-.01-.01-.02-.06 0-.08l.32-.04c.12-.03.16-.09.17-.3a60.91 60.91 0 0 0 0-2.35c0-.2-.03-.25-.15-.28a1.39 1.39 0 0 0-.24-.04c-.01-.01 0-.06 0-.07"/><path id="gf9oy" d="M1300.24 8034.16l.01-.02c.06 0 .11.02.23.02a.7.7 0 0 0 .38-.09c.25-.15.31-.4.31-.68 0-.47-.21-.85-.88-.85-.05 0-.17 0-.2.02-.02 0-.03.03-.04.07l-.01 1.2c0 .33-.02.91 0 1.31 0 .28.05.3.2.33l.24.04c.02.01.02.07 0 .08l-.6-.02-.58.02c-.02-.01-.02-.07 0-.08l.23-.04c.1-.03.16-.02.18-.3 0-.16.02-.44.02-1.2v-1.14c-.02-.17-.04-.25-.16-.28a1.7 1.7 0 0 0-.26-.05c0-.01 0-.07.02-.07l.54.01h.7c.17 0 .46.03.65.18.15.13.3.33.3.65 0 .47-.26.76-.53.89a1.11 1.11 0 0 1-.7.08.24.24 0 0 1-.05-.08"/><path id="gf9oz" d="M1305.18 8032.59a1.42 1.42 0 0 0-.64-.12c-.8 0-1.28.57-1.28 1.46 0 .98.56 1.59 1.45 1.59.15 0 .4-.02.6-.21.15-.13.22-.26.34-.46.01 0 .07.02.07.04-.07.26-.27.62-.38.67-.14.04-.42.1-.73.1-1.08 0-1.72-.6-1.72-1.68 0-.55.24-1.1.8-1.39.26-.15.6-.24 1.03-.24.4 0 .7.08.93.1-.04.15-.09.53-.1.72 0 .02-.08.03-.08.01-.05-.42-.13-.52-.29-.6"/><path id="gf9oA" d="M1307.32 8035.46c.1-.02.1-.08.12-.27.01-.16.02-.51.02-1.2l-.01-1.24c-.01-.14-.05-.18-.13-.2-.09-.03-.2-.04-.25-.04v-.08l.54.02.52-.02c.01.01.01.06 0 .07l-.22.04c-.11.03-.13.08-.14.27a34.67 34.67 0 0 0 0 1l.56-.03c.68 0 .96.4.96.83 0 .42-.24.74-.65.9-.15.06-.3.09-.64.09l-1-.01v-.08c.11-.01.2-.02.32-.05m1.62-.72c0-.55-.3-.83-.92-.83l-.24.01-.02.04.01 1.3c0 .04.02.1.05.12.12.08.3.1.41.1.51 0 .7-.35.7-.74"/><path id="gf9oB" d="M1310.65 8035.48c.19-.03.2-.12.2-.38l.02-1.2-.01-1.11c0-.13-.02-.22-.16-.25a1.76 1.76 0 0 0-.23-.04c-.02-.01-.01-.07 0-.07l.56.01c.24 0 .4-.02.5-.01.01 0 .02.07 0 .07l-.18.03c-.16.03-.16.12-.17.3v1.07s0 .02.02.02c.33 0 .45-.1.53-.22.1-.14.15-.24.26-.45.33-.69.52-.9.83-.9.03 0 .11.03.15.06l.03.05c0 .09-.04.24-.07.28l-.05.03a.62.62 0 0 0-.26-.1c-.15 0-.24.09-.41.43-.22.43-.38.71-.53.81v.02c.07.04.13.1.22.22l.69.9c.35.44.44.45.8.46.02 0 .01.08 0 .08-.12.02-.53 0-.6-.02a.43.43 0 0 1-.29-.14c-.17-.16-.5-.64-.84-1.11-.15-.2-.26-.3-.47-.3l-.02.01.01 1.19c0 .17.03.21.17.25l.22.04c.02.02.02.07 0 .08l-.58-.02-.53.02c-.02 0-.02-.08-.01-.08z"/><path id="gf9oC" d="M1315.06 8035.04c.3-.73.76-2.04.88-2.35l.07-.25H1316.24l.06.22c.1.26.68 2.11.83 2.49.13.3.16.32.5.36l-.01.07-.54-.01-.56.01s-.01-.06 0-.07l.25-.05c.08-.04.08-.07.06-.14-.05-.22-.25-.77-.34-1.05l-.04-.03H1315.56l-.04.04c-.1.26-.3.83-.33.97-.01.1-.02.18.15.22l.22.04-.01.07-.58-.01-.48.01c-.01 0-.01-.06 0-.07.36-.05.4-.09.57-.47m.96-2.2l-.41 1.2c0 .02 0 .03.02.03l.45.01h.33s.02-.02.01-.04l-.38-1.2h-.02"/><path id="gf9oD" d="M1320.05 7954.38l-4.15 4.18.59.58.78-.77.05.04 1.97 2-1.9 1.9-.04-.05-36.4-36.6-.58.58 39.68 39.92 5.87-5.9zm-.04 10.54l-2.03-2.04 2.47-2.48-2.61-2.62 2.21-2.23.07.07 4.63 4.64-4.7 4.72z"/><path id="gf9oE" d="M1241.14 7962.26l-.05-.05-1.8-1.82 1.97-1.99.06.05 36.24 36.43.58-.59-39.7-39.9-5.86 5.87 5.85 5.9 4.15-4.17-.58-.59zm-2.7 2.72l-.07-.06-4.62-4.66 4.68-4.7.05.06 2.2 2.2-2.56 2.57 2.44 2.44z"/><path id="gf9oF" d="M1284.42 7925.32l30.21 30.37.59-.58-30.21-30.38z"/><path id="gf9oG" d="M1314.89 7949.17l-23.97-24.1-.59.58 23.98 24.1z"/><path id="gf9oH" d="M1274.63 7995.91l-30.2-30.37-.59.6 30.2 30.38z"/><path id="gf9oI" d="M1244.23 7971.99l23.99 24.12.58-.59-23.98-24.12z"/><path id="gf9oJ" d="M1284.42 7995.45l.59.59 30.2-30.36-.57-.6z"/><path id="gf9oK" d="M1290.2 7995.01l.59.57 23.97-24.1-.58-.59z"/><path id="gf9oL" d="M1274.63 7924.84l-.6-.57-30.19 30.36.58.59z"/><path id="gf9oM" d="M1268.67 7925.14l-.58-.58-23.97 24.1.58.58z"/><path id="gf9oN" d="M1280.36 7997.71l.92.92-1.99 1.98-2.02-2.03 36.4-36.6-.6-.58-39.69 39.9 5.87 5.9 5.85-5.9-4.15-4.17zm1.54 1.55l2.03 2.04-4.68 4.73-.06-.06-4.64-4.67 2.14-2.13 2.6 2.62 2.57-2.59z"/><path id="gf9oO" d="M1278.12 7922.8l-.74-.72 1.9-1.92.05.07 1.8 1.8-36.3 36.52.56.59 39.7-39.9-5.84-5.9-5.86 5.9 4.14 4.15zm-3.57-3.57l4.7-4.72.05.06 4.63 4.66-.05.05-2.16 2.16-2.44-2.45-2.48 2.48z"/><path id="gf9oP" d="M1285.74 7953.35l.05-.09a9.95 9.95 0 0 0 .7-6.92 5.57 5.57 0 0 0-2.87-3.57 4.3 4.3 0 0 0-.85-.41l-.17-.08c-.63-.75-1.36-1.16-2.06-1.16h-.1c-.14 0-.26.1-.3.24l-.1.24-.57 1.6-.03.06h-.05c-.5.04-1.3.16-2.22.38h-.01c-1.6.45-2.33.85-2.5 1.36-.08.23-.03.45.11.7l.05.09-.08.03c-.52.25-1.23.65-1.6 1.2-.41.63-.08 1.31.2 1.6l.14.18.2-.06c.05 0 .27-.06.78-.33l-.16-.33a.38.38 0 0 0-.49-.16l-.08.05-.03-.08a.51.51 0 0 1 .03-.46c.35-.52 1.27-.96 1.72-1.12l1.08-.27v.1c.02.2.08.37.2.5.1.1.25.19.43.2.16.02.34 0 .53-.06a44.9 44.9 0 0 1 1.17-.35.81.81 0 0 0-.35-.4.8.8 0 0 0-.6-.07l-.42.13c-.06.03-.1.03-.16.04l-.1.02v-.11l.02-.13.02-.05.05-.01 1.24-.3a.8.8 0 0 0 .61-.89l-3.65.89-.06-.1c-.05-.06-.1-.12-.1-.17l-.03-.05.02-.03c.08-.11.41-.41 2-.87.97-.24 1.9-.33 2.36-.38.15 0 .3-.1.34-.25l.61-1.7.05-.15.06.02c.63.12 1.28.7 1.75 1.56.28.52.46 1.1.49 1.6l.03.33-.18-.29a4.6 4.6 0 0 0-.92-1.09.7.7 0 0 0-.46-.17.7.7 0 0 0-.58.32c.4.22 2.14 1.4 1.71 3.28-.2.86-1.18 1.68-2.9 2.47l-1.7.76c-.77.35-1.45.63-2.03.93l-.08.03-.03-.08c-.03-.12-.08-.23-.1-.35-.04-.06-.06-.14-.09-.22l-.03-.1h.1c.78-.09 1.4-.83 1.88-1.37.16-.17.3-.34.43-.45l.04-.05.05.03c.14.11.38.35.63.63.12-.12.2-.32.2-.5a.68.68 0 0 0-.25-.57c-.57-.5-.82-.33-.91-.27-.24.14-.46.41-.72.7-.48.55-1.06 1.23-1.6 1.13-.71-.1-1.12-.87-1.23-1.1l-.66.25c.1.24.48 1.02 1.24 1.39l.05.03v.03c.03.22.1.48.18.68l.15.47.01.07-.05.03c-1.49.85-2.13 1.72-2.42 3.32a12 12 0 0 0 .77-.2c.44-1.9 1.62-2.42 4.75-3.8l1.71-.77c1.97-.89 3.05-1.87 3.3-2.96.07-.31.1-.63.08-.95v-.01l.02-.03c.3-.48.4-1.1.3-1.82l-.05-.37.2.32c.45.71.6 1.49.48 2.3-.33 2.05-2.53 4.2-4.56 5.24l-1.48.73-.06.01c-1.5.73-2.94 1.4-3.62 2.5l-.01.01-.03.02c-.63.2-1.37.38-2.11.5l-.06.02-.02-.05c-.14-.2-.4-.56-.79-.74a4.55 4.55 0 0 0-1.6-.5 2.88 2.88 0 0 1-1.48-.57c-.34-.26-.5-.5-.52-.5a.35.35 0 0 0-.42-.12l-.2.08-.05-.05a3.49 3.49 0 0 1-.38-1.17c-.1-.6.02-1.45.14-2.21.16-.96.27-1.66-.04-2.04-.3-.38-.63-.43-1-.12l-.03.01h-.06c-.27-.1-.38-.32-.52-.65l-.01-.03c-.08-.2-.29-.38-.6-.5l-.08-.02.03-.08c.14-.33.41-.85.76-.85h.08c.18.04.37.1.58.13.75.14 1.7.33 1.84.8l.26 1.01c.25 1.06.58 2.51 1.03 3.15.6.88.78.95.86.98l.05.01c.04.02 1.44.35 2.83.59.23-.2.5-.41.81-.6-1.2-.18-2.67-.5-3.4-.67h-.02l-.02-.01c-.06-.08-.23-.26-.53-.71-.35-.53-.7-1.96-.91-2.91l-.27-1.05c-.27-.88-1.45-1.12-2.4-1.3a3.9 3.9 0 0 1-.54-.12c-1.04-.25-1.65 1.01-1.84 1.79l-.02.06a.3.3 0 0 0 .05.24.3.3 0 0 0 .2.14h.07c.16.03.42.11.52.19l.03.05c.12.31.36.83.94 1.04.24.08.46.05.66-.08l.11-.06.02.11c.03.25-.05.82-.14 1.39-.13.8-.29 1.74-.15 2.46.27 1.41.74 1.74.88 1.82l.15.08.34-.14.03.03c.35.36 1.1 1 2.28 1.1l.4.07c.03.02.62.29.9.54l.1.12-.17.02c-1.13.1-2.14.05-2.74-.14a1.95 1.95 0 0 0-1.5.08 2.1 2.1 0 0 0-.95 1.3c-.1.28-1 .97-1.76 1.46l-.17.1v.2c0 .16.01 1.62.45 2.31.05.1.14.16.24.17.1.02.2-.01.28-.07.4-.32.57-.29.76-.26.44.07.75-.01 1.07-.68.3-.61.75-1 1-1.15l.03-.03.05.01c.22.13.7.3 1.35.1.24-.08.88.17 1.64.47 1.11.45 2.37.97 3.42.76a3.4 3.4 0 0 0 2.03-1.26l.1-.11.04.14c.17.62.63 1.4 1.18 2.3l.17.29c.05.06.27.44.37.63a9 9 0 0 1 .5 1.74l.02.11-.12-.01c-1.95-.24-3.2-2.19-3.8-3.37-.14.05-.3.08-.46.11l-.26.05c.14.28.34.7.63 1.13l.04.07-.08.05c-1.05.56-3.56 2.02-4.44 3.32-1.18 1.7-1.15 3.28.08 4.32.42.37 1.06.76 1.65 1.1.58.36 1.46.88 1.65 1.16l.03.04-.03.05-.24.4-.02.04c-.51.94-.88 1.39-1.36 1.23-1.5-.49-2.6-.46-3.3.05-.54.4-.8 1.07-.8 1.97v.03c0 .21.15.37.36.37.55 0 .84.49.92.64.27.53.7.56 2.13.54.34-.01.64.02.9.03h.07c.75.05 1.34.07 1.84-.6.19-.22.5-.7.91-1.3l.02-.02c.85-1.28 1.79-2.66 2.09-2.88l.01-.02a.99.99 0 0 0 .62-.83c.04-.45-.18-.86-.59-1.1-.2-.14-.48-.22-.81-.31-.58-.16-1.3-.36-1.53-.8-.1-.18-.1-.42-.01-.72.33-1.02 2.58-1.42 3.61-1.55l-.08-.7c-1.43.17-3.77.66-4.2 2.03-.17.5-.15.93.04 1.3.38.7 1.26.93 1.96 1.14.27.06.54.14.65.22.23.14.27.3.25.4-.02.12-.08.23-.17.24-.33.13-.84.78-2.46 3.2l-.03.04c-.36.54-.67 1.02-.85 1.22-.26.36-.48.38-1.27.33-.24-.01-.57-.03-.93-.03h-.3c-.75 0-1.08-.03-1.17-.1h-.02c-.02 0-.03-.02-.03-.06-.1-.17-.46-.79-1.15-.98l-.06-.01v-.08c.06-.48.23-.82.5-1.03.35-.25 1.1-.46 2.66.05 1.14.38 1.8-.84 2.21-1.57l.27-.45c.1-.16.13-.32.1-.51-.11-.52-.85-.98-2.03-1.7-.58-.34-1.18-.69-1.54-1-1.2-1.03-.65-2.4.03-3.4.83-1.2 3.5-2.7 4.3-3.15l.05-.03.05.07c1.04 1.3 2.23 2.02 3.55 2.08l.06.02.02.06.1.93c.2 2.68.53 4.93 2.73 5.54.9.23 1.82.25 2.56.26h.03c.33 0 .77.02.98.07l.06.01v.07c-.03.61-.23 2.13-.7 2.54-.46.41-.59.4-1.85.1h-.03a1.49 1.49 0 0 0-1.46.44c-.6.62-.9 1.74-.68 2.59v.02c.05.14.23.27.38.25h.05c.38 0 .88.3.94.52l.04.06c.25.46.54.56.9.56l.56-.03.55-.07c.18 0 .4-.01.58-.03h.03c1.07-.05 2.17-.1 2.58-1.01.12-.27.31-.86.56-1.61.62-1.85 1.23-3.62 1.56-3.92l.03-.02a.84.84 0 0 0 .46-.79 2.36 2.36 0 0 0-1.34-2 3.17 3.17 0 0 0-1.37-.12c-.55.02-1.19.03-1.4-.2-.1-.13-.14-.35-.07-.66l.21-1.2.02-.07c.2-.96.35-1.79.36-2.64a.7.7 0 0 0-.23-.57.76.76 0 0 0-.5-.2c.09 1.09-.08 2-.34 3.27l-.23 1.28c-.1.54-.02.96.23 1.25.44.52 1.26.49 1.97.45.4-.01.85-.03 1.07.07.34.16.7.55.85 1 .1.25.06.39.04.42v.05h-.04c-.5.22-1 1.47-1.95 4.38-.24.7-.44 1.3-.55 1.54-.22.51-1.07.54-1.95.59h-.1c-.17.02-.36.02-.55.03l-.55.05c-.39.05-.56.05-.64.01-.03-.01-.06-.04-.1-.12-.2-.5-.83-.87-1.35-.97l-.05-.01v-.06c-.04-.58.18-1.22.52-1.59.24-.23.5-.31.8-.25h.02c1.3.32 1.75.43 2.49-.25.76-.7.94-2.75.95-3.23 0-.64-.67-.7-1.77-.72-.7 0-1.59-.02-2.4-.24-1.6-.44-1.99-2-2.2-4.88-.2-2.55-.75-3.73-.92-4.03l-.13-.24c-.09-.16-.18-.32-.3-.5l-.03-.05c-.56-.94-1.16-1.95-1.14-2.37.03-.81.37-2.79 2.8-3.88 2.8-1.26 4.8-2.62 5.42-5.24.2-.89.38-2.44.14-3.9h.08l.08-.04c.04.16.1.3.14.44a9.27 9.27 0 0 1-.63 6.4l-.06.12-.22.34c-1.45 2.25-3.43 3.27-5.03 4.08l-.37.19a.83.83 0 0 0-.39.47.8.8 0 0 0 .05.54c.3-.17.63-.35.97-.52l.07-.03a15.9 15.9 0 0 0 3.47-2.21l.24-.21-.11.29a13.2 13.2 0 0 0-.85 3.74c-.05 1.19.26 2.17.86 2.77.46.45 1.05.7 1.78.7.06 0 .12 0 .19-.02 2.02-.1 5.73-1.16 7.6-3.18 1.81-1.96 1.58-4.74-.58-6.9l-.97-.97c-1.46-1.42-2.85-2.75-2.94-4.08l-.02-.01c-.1-.86-.19-3.21.76-4.05.33-.29.64-.36.96-.22.56.28 1.08 1.33 1.07 2.15-.05 1.23-.59 1.86-.59 1.86l-.31.36a.1.1 0 0 0-.02.12c.02.03.05.06.08.06l.47.06c.07 0 1.53.14 2.44-.96.49-.6.61-1.49.33-2.32a1.96 1.96 0 0 0-1.24-1.31c-.05.36.05.72.3 1.02.1.14.2.32.26.52.2.59.13 1.22-.2 1.63-.27.32-.61.52-1.04.63l-.15.05.06-.16c.19-.47.3-.98.31-1.55.03-1-.52-2.35-1.47-2.81-.57-.27-1.18-.16-1.73.33-1.37 1.22-1.04 4.32-1 4.66.13 1.6 1.6 3.02 3.17 4.54l.14.14.83.8c1.89 1.92 2.1 4.23.57 5.92-1.72 1.86-5.27 2.86-7.12 2.95h-.15c-.53 0-.97-.15-1.28-.47-.46-.46-.7-1.26-.65-2.23.1-2.4 1.59-5.47 2.04-6.34l.05-.08zm-.88-5.11c-.03.6-.1 1.2-.2 1.64-.57 2.33-2.34 3.54-5.02 4.76a5.23 5.23 0 0 0-2.84 2.78l-.16.37v-.05c-.65 1.34-1.3 2.15-2.47 2.39-.83.17-2.04-.32-3-.71-.93-.37-1.63-.65-2.12-.51-.55.17-.84-.02-.9-.08a.34.34 0 0 0-.4-.1c-.05.02-1.01.48-1.58 1.63-.08.16-.12.24-.16.27l-.03.03h-.03l-.08-.01c-.23-.05-.5-.06-.86.1l-.08.04-.03-.1a6.53 6.53 0 0 1-.16-1.24v-.05l.03-.03c1.1-.71 1.76-1.33 1.87-1.71.13-.44.33-.73.6-.89.25-.12.57-.14.96-.01 1.22.36 3.83.22 5.94-.35l.13-.03-.03.11c-.05.32-.05.65-.02 1 .38-.1.66-.4.7-.78.18-1.37 1.48-2.05 3.6-3.05l1.58-.77c1.59-.83 3.74-2.54 4.62-4.69l.17-.42z"/><clipPath id="gf9oi"><use xlink:href="#gf9oa"/></clipPath></defs><g><g transform="translate(-1230 -7913)"><g><g><use fill="#fefefe" xlink:href="#gf9ob"/></g><g><use fill="#fefefe" xlink:href="#gf9oc"/></g><g><use fill="#fefefe" xlink:href="#gf9od"/></g><g><use fill="#fefefe" xlink:href="#gf9oe"/></g><g><use fill="#fefefe" xlink:href="#gf9of"/></g><g><use fill="#fefefe" xlink:href="#gf9og"/></g><g><use fill="#fefefe" xlink:href="#gf9oh"/></g><g><g/><g clip-path="url(#gf9oi)"><use fill="#fefefe" xlink:href="#gf9oj"/></g></g><g><use fill="#fefefe" xlink:href="#gf9ok"/></g><g><use fill="#fefefe" xlink:href="#gf9ol"/></g><g><use fill="#fefefe" xlink:href="#gf9om"/></g><g><use fill="#fefefe" xlink:href="#gf9on"/></g><g><use fill="#fefefe" xlink:href="#gf9oo"/></g><g><use fill="#fefefe" xlink:href="#gf9op"/></g><g><use fill="#fefefe" xlink:href="#gf9oq"/></g><g><use fill="#fefefe" xlink:href="#gf9or"/></g><g><use fill="#fefefe" xlink:href="#gf9os"/></g><g><use fill="#fefefe" xlink:href="#gf9ot"/></g><g><use fill="#fefefe" xlink:href="#gf9ou"/></g><g><use fill="#fefefe" xlink:href="#gf9ov"/></g><g><use fill="#fefefe" xlink:href="#gf9ow"/></g><g><use fill="#fefefe" xlink:href="#gf9ox"/></g><g><use fill="#fefefe" xlink:href="#gf9oy"/></g><g><use fill="#fefefe" xlink:href="#gf9oz"/></g><g><use fill="#fefefe" xlink:href="#gf9oA"/></g><g><use fill="#fefefe" xlink:href="#gf9oB"/></g><g><use fill="#fefefe" xlink:href="#gf9oC"/></g><g><use fill="#fefefe" xlink:href="#gf9oD"/></g><g><use fill="#fefefe" xlink:href="#gf9oE"/></g><g><use fill="#fefefe" xlink:href="#gf9oF"/></g><g><use fill="#fefefe" xlink:href="#gf9oG"/></g><g><use fill="#fefefe" xlink:href="#gf9oH"/></g><g><use fill="#fefefe" xlink:href="#gf9oI"/></g><g><use fill="#fefefe" xlink:href="#gf9oJ"/></g><g><use fill="#fefefe" xlink:href="#gf9oK"/></g><g><use fill="#fefefe" xlink:href="#gf9oL"/></g><g><use fill="#fefefe" xlink:href="#gf9oM"/></g><g><use fill="#fefefe" xlink:href="#gf9oN"/></g><g><use fill="#fefefe" xlink:href="#gf9oO"/></g><g><use fill="#fefefe" xlink:href="#gf9oP"/></g></g></g></g></svg>