<svg xmlns="http://www.w3.org/2000/svg" xmlns:xlink="http://www.w3.org/1999/xlink" width="160" height="132" viewBox="0 0 160 132"><defs><path id="n5oba" d="M1174.52 2730.81c-3.3-.45-6.53-.69-9.56-1.88-5.98-2.35-7.4-3.82-9.51-9.97-1.24-.03-1.96.9-2.83 1.52-4.27 2.99-8.9 5.43-13.78 7.27a18.26 18.26 0 0 1-11.15.7c-3.96-.95-6.23-3.4-7.1-7.36-1.52-6.86.06-13.27 3.11-19.3 6.05-11.98 14.63-22.03 25.01-30.7 8.87-7.4 18.34-13.85 29-18.5 6.2-2.7 12.62-4.93 19.54-5.19.78-.04 1.56-.02 2.34.06a4.66 4.66 0 0 1 4.36 5.48c-.31 2.48-1.3 4.8-2.18 7.46a3.83 3.83 0 0 0 2.78-1.9c3.94-4.88 8.66-9.06 12.92-13.67 5.24-5.65 9.98-11.7 15.09-17.45a50.56 50.56 0 0 1 5.51-5.22c.62-.47 1.3-.85 2-1.15a.87.87 0 0 1 1.17.33c.13.3.14.63.01.93-.23.5-.53.95-.9 1.35-2.78 2.97-5.55 5.96-8.4 8.87a593.06 593.06 0 0 0-24.3 26.5c-.7.82-1.3 1.74-1.97 2.64 1.18.46 1.53-.54 2.06-1.03a27.8 27.8 0 0 1 7.5-4.85c.8-.35 1.66-.92 2.49-.24.9.76.67 1.82.3 2.73a40.9 40.9 0 0 1-2.47 5.35c-2.07 3.61-4.76 6.85-6.57 10.62-.37.77-.72 1.55-1.19 2.59 1.83.12 2.58-1.06 3.45-1.9 4.74-4.62 9.42-9.29 14.16-13.9a60.92 60.92 0 0 1 4.48-3.9c.63-.5 1.52-1.3 2.32-.38.62.7-.06 1.43-.55 2-4.48 5.3-8 11.25-12.12 16.8-.55.5-.8 1.27-.67 2.01a44.18 44.18 0 0 0 7.28-7.06c3.23-3.6 6.66-7.04 10.27-10.27 1.1-.93 2.27-1.76 3.51-2.49.7-.44 1.51-1.38 2.34-.56.82.81-.28 1.56-.62 2.28-1.57 3.4-3.9 6.33-6.1 9.34-1.66 2-2.92 4.3-3.71 6.78 2.9-3.1 5.78-6.23 8.73-9.29 8.11-8.4 14.43-18.24 22.4-26.77 3.75-4.03 7.44-8.1 12.06-11.23.59-.5 1.3-.85 2.06-1.02 1.77-.24 2.85.93 2.23 2.54a12.4 12.4 0 0 1-1.65 2.83 283.72 283.72 0 0 1-14.6 17.83c-5.14 5.87-10.11 11.88-15.48 17.55-4.43 4.69-8.6 9.72-14.22 13.22-.7.53-1.3 1.18-1.78 1.92-1.86 2.45-3.7 4.9-5.5 7.4-1.63 2.23-1.53 2.42 1.37 2.85 1.32.2 2.65.28 3.98.42 4.37.48 8.53 1.52 12.14 4.18 3.13 2.3 3.42 4.99.67 7.62a51.73 51.73 0 0 1-10.16 7.4 137.11 137.11 0 0 1-30.32 12.71 14.93 14.93 0 0 0-7.43 5.21 174.46 174.46 0 0 1-12.56 13.98 36.4 36.4 0 0 1-8.62 6.1c-1.7.88-3.6 1.27-5.5 1.14-3.35-.2-4.65-2.1-3.82-5.32 1.37-5.32 4.51-9.67 7.73-14l.95-1.32c.05-.08 0-.2 0-.69m24.21-64.86c-.65.36-1.09 1.01-1.18 1.75.55-.48 1.53-.67 1.18-1.75zm-8.24 10.25a3.46 3.46 0 0 0 2.34-2.54 5.88 5.88 0 0 0-2.34 2.54zm7.01-8.42a3.66 3.66 0 0 0-1.96 2.55 4.25 4.25 0 0 0 1.96-2.55zm-2 2.6a5.57 5.57 0 0 0-2.62 3.21 5.7 5.7 0 0 0 2.62-3.2zm-12.63 15.13c-.72.14-1.54.73-2.08-.2-.45-.76.06-1.45.5-2.1.18-.27.38-.53.59-.78 2.84-3.35 5.59-6.78 8.55-10.02 4.48-4.92 8.45-10.13 10.7-16.4 1.83-5.09.72-6.7-4.85-6.45-5.95.28-11.61 2.1-17 4.4a119.67 119.67 0 0 0-35.85 24.1 85.66 85.66 0 0 0-18.47 25.02 47.23 47.23 0 0 0-3.28 9.92c-.52 2.35-.47 4.8.17 7.12 1 3.73 3.34 6.14 7.24 6.83 3.07.6 6.25.33 9.17-.8a71.83 71.83 0 0 0 15.49-8.94 4.88 4.88 0 0 0 2.18-2.78c1.2-5.1 4.56-8.88 8.16-12.49a60.43 60.43 0 0 1 12.75-9.43 17.7 17.7 0 0 0 6.86-6.9 3.15 3.15 0 0 0-.83-.1zm-8.52 43.06c2.97.05 3 .1 5.7-2.1 4.2-3.43 8.32-6.9 12.47-10.37 1.35-1.13 2.73-2.24 4-3.46.75-.72.49-1.6-.56-1.6-2.86-.01-4.27-2.2-5.97-3.76-2.45-2.25-2.2-4.8.24-7.13a14.36 14.36 0 0 1 7.76-3.54c6.02-1.05 12.03-2.25 18.14-2.79 2.54-.22 3.04-1.03 2.33-3.43a5.02 5.02 0 0 0-2.05-2.88 12.38 12.38 0 0 0-4.86-2.06c-8.21-1.41-15.92.53-23.47 3.38a22.07 22.07 0 0 0-9.55 6.36c-4.74 5.64-9.8 11-15.17 16.06a211.14 211.14 0 0 0-4.24 4.18 3.96 3.96 0 0 0-1.3 3.85c.58 2.38 1.56 4.43 3.87 5.83 3.8 2.34 8.2 3.54 12.66 3.47m28.39-5.35a1.9 1.9 0 0 0 2 .22c10.46-3 20.5-7.3 29.88-12.81a45.45 45.45 0 0 0 7.72-5.68c2.44-2.21 2.34-4.28-.33-6.2-1.29-.87-2.73-1.5-4.25-1.85a56.64 56.64 0 0 0-11.86-1.63c-2-.2-3.95.78-4.98 2.5-4.54 6.34-9.24 12.55-13.82 18.84a46.88 46.88 0 0 0-4.36 6.61M1185.63 2687.72a60.2 60.2 0 0 1 24.86-4.39c1.42.07 2.2-.87 2.77-2a42.78 42.78 0 0 1 3.6-5.5c2.75-3.86 5.42-7.8 8.32-11.98a7.46 7.46 0 0 0-2.78 2.3c-4.26 5.22-9.59 9.37-14.5 13.94-.32.3-.65.6-1 .86-.64.47-1.34.94-2.12.4a1.7 1.7 0 0 1-.5-1.8c.21-.95.57-1.87 1.06-2.72 2-4.53 4.91-8.52 7.69-12.59a20.06 20.06 0 0 0 2.85-6.2c-6.47.9-29.16 24.34-30.25 29.68zm-15.41 62.78c2.66-.32 5.2-1.32 7.36-2.92 6.82-4.85 12.07-11.21 17.4-17.5.41-.48.95-1.05.38-1.7-.4-.48-1.04-.32-1.57-.18-4.32 1.14-8.78 1.41-13.19 1.95a7.7 7.7 0 0 0-5.17 2.66 40.53 40.53 0 0 0-6.98 10.68 13.3 13.3 0 0 0-.81 4.47c-.1 1.9.69 2.6 2.58 2.54m44.5-54.57c-6.55 1.25-13.57 1.68-20.24 3.9l-.3.11c-1.85.84-3.82 1.77-3.78 4.06.04 2.2 1.8 3.39 3.7 4.2 1.02.43 2.21.5 3.13 1.05 1.83 1.08 3.14.36 4.44-.83 1.62-1.49 3.25-2.97 4.85-4.46.73-.67 1.46-1.55 2.45-1.6 3.1-.17 4.77-2.56 6.96-4.12.61-.31.95-.98.82-1.66-.26-.83-1.09-.52-2.03-.65m-33.4 31.45c.44.2.9.35 1.38.43a70.43 70.43 0 0 0 15.07-2.65c.65-.16 1.23-.5 1.71-.96a84.75 84.75 0 0 0 7.89-10.91c.4-.61.39-1.5-.49-1.53-3.03-.1-6.16-.9-8.83 1.56-2.83 2.61-5.9 4.96-8.83 7.46-2.5 2.14-5.33 3.88-7.9 6.6m49.21-48.45c-.88.67-1.83 1.66-2.93.87-1.2-.85-.32-1.95.18-2.9.1-.2.23-.38.34-.56 2.2-3.67 4.59-7.21 7.16-10.62.9-1.15 1.75-2.33 2.62-3.5a10.83 10.83 0 0 0-4.26 2.75c-4.48 4.67-8.53 9.74-13.57 13.9-1.52 1.27-2.85 2.75-4.27 4.13-.7.68-1.2 1.38-.02 2.08a8.62 8.62 0 0 1 4.7 6.73c.13 1.23 1.05 1.27 1.9.43.54-.54 1.04-1.13 1.49-1.75 2.64-3.64 5.26-7.29 7.87-10.94.36-.5.86-1.01.62-1.76-.95-.14-1.26.71-1.83 1.14zm6.71-2.72c1-.96 2.04-1.9 3.02-2.89 6.83-6.86 13.14-14.18 19.6-21.36 5.76-6.34 11.15-13 16.15-19.94.5-.7 1.87-1.5.84-2.43-.87-.79-1.84.15-2.6.79-.34.28-.66.59-.96.9-7.16 7.6-14.3 15.21-20.61 23.53-1.8 2.36-2.99 5.15-4.98 7.27a130 130 0 0 0-9.21 11.16 4.18 4.18 0 0 0-1.25 2.97m-21.44 25.26a374.88 374.88 0 0 1-9.1 4.63 11.95 11.95 0 0 0-3.46 3c-.52.59-.56 1.2.25 1.57 1.8.83 5.67.18 6.76-1.27 1.92-2.6 3.7-5.28 5.55-7.93m-56.45 10.44c5.23-4.54 10.45-9.12 14.59-14.72-6.26 3.57-11.44 8.15-14.59 14.72"/></defs><g><g transform="translate(-1120 -2621)"><use fill="#fff" xlink:href="#n5oba"/></g></g></svg>